<?xml version="1.0" encoding="utf-8"?>
<!-- Generator: Adobe Illustrator 17.1.0, SVG Export Plug-In . SVG Version: 6.00 Build 0)  -->
<!DOCTYPE svg PUBLIC "-//W3C//DTD SVG 1.1//EN" "http://www.w3.org/Graphics/SVG/1.1/DTD/svg11.dtd">
<svg version="1.1" id="Layer_1" xmlns="http://www.w3.org/2000/svg" xmlns:xlink="http://www.w3.org/1999/xlink" x="0px" y="0px"
	 viewBox="0 0 7200 482" enable-background="new 0 0 7200 482" xml:space="preserve">
<rect x="1610" y="482" display="none" fill="#29D3BA" width="780" height="482"/>
<g display="none">
	<path display="inline" fill="#00414C" d="M1924.2,238.9l-6.6-9.6l-6.5,9.6l-8.4-6.2l7.3-8.6l-10.4-2.1l3.1-10.3l10.2,3.9l-0.6-10.4
		h10.5l-1.1,10.6l10.8-4.1l2.9,10.3l-10.6,2.1l7.7,8.6L1924.2,238.9z"/>
	<path display="inline" fill="#00414C" d="M1940.3,255.4c0,6.5-9.9,6.5-9.9,0C1930.4,248.8,1940.3,248.8,1940.3,255.4z"/>
</g>
<g>
	<path fill="#29D3BA" d="M1976,260.2v-18.7c0-4.6-2.4-8.8-7.2-8.8c-4.7,0-7.5,4.2-7.5,8.8v18.7h-8.7v-35.1h8l0.6,4.3
		c1.8-3.6,5.9-4.8,9.2-4.8c4.2,0,8.4,1.7,10.4,6.5c3.1-5,7.2-6.4,11.7-6.4c9.9,0,14.8,6.1,14.8,16.6v18.9h-8.7v-18.9
		c0-4.6-1.9-8.5-6.6-8.5c-4.7,0-7.6,4-7.6,8.7v18.7H1976z"/>
	<path fill="#29D3BA" d="M2014.6,274.9v-49.6h8.1l0.6,4.8c2.7-3.9,7.4-5.6,11.4-5.6c10.8,0,18,8,18,18.3c0,10.2-6.5,18.3-17.7,18.3
		c-3.7,0-9.2-1.1-11.6-5v18.7H2014.6z M2043.9,242.8c0-5.5-3.7-9.9-9.9-9.9s-9.9,4.5-9.9,9.9s4,9.9,9.9,9.9
		S2043.9,248.2,2043.9,242.8z"/>
	<path fill="#29D3BA" d="M2068.9,238.6v-7.7h7.2c5,0,10.4-1.3,10.4-6c0-2.8-2.3-6.6-10.2-6.6c-4.4,0-10.4,1.6-10.4,6.1h-9.4
		c0-10.7,10.7-14.6,19.8-14.6c9.4,0,19.5,4.5,19.5,15.1c0,3.9-2.6,8.4-6.9,9.8c4.8,1.6,8.1,6.2,8.1,10.4c0,12.1-11.4,15.8-21,15.8
		c-9.4,0-20.2-4-20.3-15.3h9.4c0,5.1,6.9,6.9,10.9,6.9c4.8,0,11.1-2,11.1-7.3c0-3-1.6-6.7-10.6-6.7H2068.9z"/>
</g>
<rect x="810" y="482" display="none" fill="#D3B494" width="780" height="482"/>
<g display="none">
	<path display="inline" fill="#00414C" d="M1124.2,238.9l-6.6-9.6l-6.5,9.6l-8.4-6.2l7.3-8.6l-10.4-2.1l3.1-10.3l10.2,3.9l-0.6-10.4
		h10.5l-1.1,10.6l10.8-4.1l2.9,10.3l-10.6,2.1l7.7,8.6L1124.2,238.9z"/>
	<path display="inline" fill="#00414C" d="M1140.3,255.4c0,6.5-9.9,6.5-9.9,0C1130.4,248.8,1140.3,248.8,1140.3,255.4z"/>
</g>
<g>
	<path fill="#FF8800" d="M1175.6,234.5c-2.5-2.3-5.3-3.1-8.7-3.1c-4.1,0-6.4,1.3-6.4,3.5c0,2.3,2.1,3.5,6.5,3.8
		c6.6,0.4,15,1.9,15,11.2c0,6.2-5,11.5-15.1,11.5c-5.5,0-11.1-0.9-16.2-6.2l4.3-6.2c2.5,2.8,8.2,4.8,12.1,4.9
		c3.3,0.1,6.3-1.6,6.3-4.2c0-2.4-2-3.4-7-3.7c-6.6-0.5-14.5-2.9-14.5-10.9c0-8.1,8.4-10.9,14.8-10.9c5.5,0,9.6,1.1,13.6,4.6
		L1175.6,234.5z"/>
	<path fill="#FF8800" d="M1221.3,242.8c0,10.1-6.9,18.2-18.2,18.2c-11.4,0-18.2-8.2-18.2-18.2c0-10,7-18.2,18.1-18.2
		C1214.1,224.5,1221.3,232.8,1221.3,242.8z M1193.5,242.8c0,5.3,3.2,10.3,9.5,10.3s9.5-5,9.5-10.3c0-5.3-3.7-10.4-9.5-10.4
		C1196.8,232.4,1193.5,237.5,1193.5,242.8z"/>
	<path fill="#FF8800" d="M1235.1,225.2v18.3c0,5.3,2.9,9.4,8.4,9.4c5.3,0,8.9-4.5,8.9-9.8v-17.9h8.6v35.1h-7.7l-0.6-4.8
		c-3.6,3.5-7,5.3-11.9,5.3c-8.4,0-14.5-6.3-14.5-17.2v-18.4H1235.1z"/>
	<path fill="#FF8800" d="M1293.4,260.2v-18.3c0-5.3-2.9-9.4-8.4-9.4c-5.3,0-8.9,4.5-8.9,9.8v17.9h-8.6v-35.1h7.7l0.6,4.8
		c3.5-3.5,7.1-5.3,11.5-5.3c8.2,0,14.8,6.2,14.8,17.2v18.4H1293.4z"/>
	<path fill="#FF8800" d="M1344.8,210.6v49.6h-8.1l-0.6-4.8c-2.7,4.2-7,5.6-11.3,5.6c-10.3,0-18-6.8-18-18.3
		c0-12.1,7.6-18.3,17.8-18.3c3.7,0,9.4,2,11.5,5.6v-19.4H1344.8z M1315.5,242.7c0,6.1,4.4,10.3,9.9,10.3c5.5,0,10.2-4,10.2-10.3
		c0-6.1-4.7-10.2-10.2-10.2C1319.9,232.5,1315.5,236.4,1315.5,242.7z"/>
	<path fill="#FF8800" d="M1381.3,255.8c-4,4-8.3,5.5-13.5,5.5c-10.2,0-18.6-6.1-18.6-18.5s8.4-18.5,18.6-18.5c5,0,8.8,1.4,12.6,5.2
		l-5.5,5.8c-2.1-1.8-4.6-2.8-7-2.8c-5.8,0-10.1,4.3-10.1,10.4c0,6.7,4.5,10.2,9.9,10.2c2.8,0,5.5-0.8,7.7-2.9L1381.3,255.8z"/>
	<path fill="#FF8800" d="M1392.7,210.6v49.6h-8.6v-49.6H1392.7z"/>
	<path fill="#FF8800" d="M1434,242.8c0,10.1-6.9,18.2-18.2,18.2c-11.4,0-18.2-8.2-18.2-18.2c0-10,7-18.2,18.1-18.2
		C1426.8,224.5,1434,232.8,1434,242.8z M1406.3,242.8c0,5.3,3.2,10.3,9.5,10.3s9.5-5,9.5-10.3c0-5.3-3.7-10.4-9.5-10.4
		C1409.5,232.4,1406.3,237.5,1406.3,242.8z"/>
	<path fill="#FF8800" d="M1447.8,225.2v18.3c0,5.3,2.9,9.4,8.4,9.4c5.3,0,8.9-4.5,8.9-9.8v-17.9h8.6v35.1h-7.7l-0.6-4.8
		c-3.6,3.5-7,5.3-11.9,5.3c-8.4,0-14.5-6.3-14.5-17.2v-18.4H1447.8z"/>
	<path fill="#FF8800" d="M1516.7,210.6v49.6h-8.1l-0.6-4.8c-2.7,4.2-7,5.6-11.3,5.6c-10.3,0-18-6.8-18-18.3
		c0-12.1,7.6-18.3,17.8-18.3c3.7,0,9.4,2,11.5,5.6v-19.4H1516.7z M1487.4,242.7c0,6.1,4.4,10.3,9.9,10.3c5.5,0,10.2-4,10.2-10.3
		c0-6.1-4.7-10.2-10.2-10.2C1491.8,232.5,1487.4,236.4,1487.4,242.7z"/>
</g>
<rect x="2410" y="482" display="none" fill="#E52D27" width="780" height="482"/>
<g display="none">
	<path display="inline" fill="#00414C" d="M2724.2,238.9l-6.6-9.6l-6.5,9.6l-8.4-6.2l7.3-8.6l-10.4-2.1l3.1-10.3l10.1,3.9l-0.6-10.4
		h10.5l-1.1,10.6l10.8-4.1l2.9,10.3l-10.6,2.1l7.7,8.6L2724.2,238.9z"/>
	<path display="inline" fill="#00414C" d="M2740.3,255.4c0,6.5-9.9,6.5-9.9,0C2730.4,248.8,2740.3,248.8,2740.3,255.4z"/>
</g>
<g>
	<path fill="#E52D27" d="M2788,225.2l-21.4,49.6h-9.5l6.5-15.2l-14-34.4h10.1l5.3,15.1l3.3,9.9l3.6-9.7l6.4-15.3H2788z"/>
	<path fill="#E52D27" d="M2826.3,242.8c0,10.1-6.9,18.2-18.2,18.2c-11.4,0-18.2-8.2-18.2-18.2c0-10,7-18.2,18.1-18.2
		C2819.1,224.5,2826.3,232.8,2826.3,242.8z M2798.5,242.8c0,5.3,3.2,10.3,9.5,10.3s9.5-5,9.5-10.3c0-5.3-3.7-10.4-9.5-10.4
		C2801.8,232.4,2798.5,237.5,2798.5,242.8z"/>
	<path fill="#E52D27" d="M2840,225.2v18.3c0,5.3,2.9,9.4,8.4,9.4c5.3,0,8.9-4.5,8.9-9.8v-17.9h8.6v35.1h-7.7l-0.6-4.8
		c-3.6,3.5-7,5.3-11.9,5.3c-8.4,0-14.5-6.3-14.5-17.2v-18.4H2840z"/>
	<path fill="#E52D27" d="M2884.8,215.4v9.9h9.7v7.5h-9.7v15.1c0,3.3,1.8,5,4.5,5c1.3,0,2.9-0.4,4.2-1.1l2.4,7.4
		c-2.5,1-4.5,1.4-7.2,1.5c-7.6,0.3-12.6-4-12.6-12.8v-15.1h-6.5v-7.5h6.5v-9L2884.8,215.4z"/>
	<path fill="#E52D27" d="M2908.8,225.2v18.3c0,5.3,2.9,9.4,8.4,9.4c5.3,0,8.9-4.5,8.9-9.8v-17.9h8.6v35.1h-7.7l-0.6-4.8
		c-3.6,3.5-7,5.3-11.9,5.3c-8.4,0-14.5-6.3-14.5-17.2v-18.4H2908.8z"/>
	<path fill="#E52D27" d="M2950,210.6V230c2.1-3.6,7.8-5.6,11.5-5.6c10.2,0,17.8,6.2,17.8,18.3c0,11.5-7.7,18.3-18,18.3
		c-4.3,0-8.6-1.4-11.3-5.6l-0.6,4.8h-8.1v-49.6H2950z M2950.6,242.7c0,6.3,4.7,10.3,10.2,10.3c5.5,0,9.9-4.2,9.9-10.3
		c0-6.3-4.4-10.2-9.9-10.2C2955.3,232.5,2950.6,236.6,2950.6,242.7z"/>
	<path fill="#E52D27" d="M2992.1,245.8c0.6,4.3,4.3,7.5,10.4,7.5c3.2,0,7.4-1.2,9.4-3.3l5.5,5.5c-3.7,3.8-9.7,5.7-15.1,5.7
		c-12.1,0-19.2-7.5-19.2-18.7c0-10.6,7.2-18.3,18.6-18.3c11.7,0,19,7.2,17.7,21.7H2992.1z M3011.1,238.7c-0.6-4.5-4.1-6.8-9.1-6.8
		c-4.7,0-8.5,2.3-9.8,6.8H3011.1z"/>
</g>
<rect x="4010" y="482" display="none" fill="#7AB800" width="780" height="482"/>
<g display="none">
	<path display="inline" fill="#00414C" d="M4324.2,238.9l-6.6-9.6l-6.5,9.6l-8.4-6.2l7.3-8.6l-10.4-2.1l3.1-10.3l10.1,3.9l-0.6-10.4
		h10.5l-1.1,10.6l10.8-4.1l2.9,10.3l-10.6,2.1l7.7,8.6L4324.2,238.9z"/>
	<path display="inline" fill="#00414C" d="M4340.3,255.4c0,6.5-9.9,6.5-9.9,0C4330.4,248.8,4340.3,248.8,4340.3,255.4z"/>
</g>
<g>
	<path fill="#7AB800" d="M4375.6,234.5c-2.5-2.3-5.3-3.1-8.7-3.1c-4.1,0-6.4,1.3-6.4,3.5c0,2.3,2.1,3.5,6.5,3.8
		c6.6,0.4,15,1.9,15,11.2c0,6.2-5,11.5-15.1,11.5c-5.5,0-11.1-0.9-16.2-6.2l4.3-6.2c2.5,2.8,8.2,4.8,12.1,4.9
		c3.3,0.1,6.3-1.6,6.3-4.2c0-2.4-2-3.4-7-3.7c-6.6-0.5-14.5-2.9-14.5-10.9c0-8.1,8.4-10.9,14.8-10.9c5.5,0,9.6,1.1,13.6,4.6
		L4375.6,234.5z"/>
	<path fill="#7AB800" d="M4386.5,274.9v-49.6h8.1l0.6,4.8c2.7-3.9,7.4-5.6,11.4-5.6c10.8,0,18,8,18,18.3c0,10.2-6.5,18.3-17.7,18.3
		c-3.7,0-9.2-1.1-11.6-5v18.7H4386.5z M4415.8,242.8c0-5.5-3.7-9.9-9.9-9.9s-9.9,4.5-9.9,9.9s4,9.9,9.9,9.9
		S4415.8,248.2,4415.8,242.8z"/>
	<path fill="#7AB800" d="M4464.6,242.8c0,10.1-6.9,18.2-18.2,18.2c-11.4,0-18.2-8.2-18.2-18.2c0-10,7-18.2,18.1-18.2
		C4457.4,224.5,4464.6,232.8,4464.6,242.8z M4436.9,242.8c0,5.3,3.2,10.3,9.5,10.3c6.3,0,9.5-5,9.5-10.3c0-5.3-3.7-10.4-9.5-10.4
		C4440.1,232.4,4436.9,237.5,4436.9,242.8z"/>
	<path fill="#7AB800" d="M4481,215.4v9.9h9.7v7.5h-9.7v15.1c0,3.3,1.8,5,4.5,5c1.3,0,2.9-0.4,4.2-1.1l2.4,7.4
		c-2.5,1-4.5,1.4-7.2,1.5c-7.6,0.3-12.6-4-12.6-12.8v-15.1h-6.5v-7.5h6.5v-9L4481,215.4z"/>
	<path fill="#7AB800" d="M4505.5,215.4c0,6.7-10.2,6.7-10.2,0C4495.3,208.6,4505.5,208.6,4505.5,215.4z M4496.1,225.1v35.1h8.7
		v-35.1H4496.1z"/>
	<path fill="#7AB800" d="M4514.3,260.2v-26.9h-6.5v-7.6h6.5v-2.3c0-9.4,6.3-13.7,13.3-13.7c3.1,0,6.2,1,9.1,2.8l-3.2,6.5
		c-1.8-1.2-3.5-1.8-5.3-1.8c-3,0-5.3,2-5.3,6.2v2.3h10.3v7.6H4523v26.9H4514.3z"/>
	<path fill="#7AB800" d="M4574.3,225.2l-21.4,49.6h-9.5l6.5-15.2l-14-34.4h10.1l5.3,15.1l3.3,9.9l3.6-9.7l6.4-15.3H4574.3z"/>
</g>
<rect x="3210" y="482" display="none" fill="#00414C" width="780" height="482"/>
<g display="none">
	<path display="inline" fill="#00414C" d="M3524.2,238.9l-6.6-9.6l-6.5,9.6l-8.4-6.2l7.3-8.6l-10.4-2.1l3.1-10.3l10.1,3.9l-0.6-10.4
		h10.5l-1.1,10.6l10.8-4.1l2.9,10.3l-10.6,2.1l7.7,8.6L3524.2,238.9z"/>
	<path display="inline" fill="#00414C" d="M3540.3,255.4c0,6.5-9.9,6.5-9.9,0C3530.4,248.8,3540.3,248.8,3540.3,255.4z"/>
</g>
<g>
	<path fill="#FFDA00" d="M3555.6,260.2v-26.9h-6.5v-7.6h6.5v-2.3c0-9.4,6.3-13.7,13.3-13.7c3.1,0,6.2,1,9.1,2.8l-3.2,6.5
		c-1.8-1.2-3.5-1.8-5.3-1.8c-3,0-5.3,2-5.3,6.2v2.3h10.3v7.6h-10.3v26.9H3555.6z"/>
	<path fill="#FFDA00" d="M3588.9,210.6v49.6h-8.6v-49.6H3588.9z"/>
	<path fill="#FFDA00" d="M3623.1,225.2h8.3v35h-8.2l-0.4-5.1c-2,4.1-7.5,6.1-11.4,6.2c-10.4,0.1-18-6.3-18-18.6
		c0-12.1,8-18.4,18.2-18.3c4.7,0,9.2,2.2,11.1,5.7L3623.1,225.2z M3602.1,242.7c0,6.7,4.6,10.6,10.4,10.6c13.6,0,13.6-21.2,0-21.2
		C3606.7,232.1,3602.1,236,3602.1,242.7z"/>
	<path fill="#FFDA00" d="M3668.5,255.8c-4,4-8.3,5.5-13.5,5.5c-10.2,0-18.6-6.1-18.6-18.5s8.4-18.5,18.6-18.5c5,0,8.8,1.4,12.6,5.2
		l-5.5,5.8c-2.1-1.8-4.6-2.8-7-2.8c-5.8,0-10.1,4.3-10.1,10.4c0,6.7,4.5,10.2,9.9,10.2c2.8,0,5.5-0.8,7.7-2.9L3668.5,255.8z"/>
</g>
<rect x="4810" y="482" display="none" fill="#00B1D8" width="780" height="482"/>
<g display="none">
	<path display="inline" fill="#00414C" d="M5124.2,238.9l-6.6-9.6l-6.5,9.6l-8.4-6.2l7.3-8.6l-10.4-2.1l3.1-10.3l10.1,3.9l-0.6-10.4
		h10.5l-1.1,10.6l10.8-4.1l2.9,10.3l-10.6,2.1l7.7,8.6L5124.2,238.9z"/>
	<path display="inline" fill="#00414C" d="M5140.3,255.4c0,6.5-9.9,6.5-9.9,0C5130.4,248.8,5140.3,248.8,5140.3,255.4z"/>
</g>
<g>
	<path fill="#208CE5" d="M5184.9,225.2l7.7,26.3l8-26.3h9.6l-12.2,35.2h-10.1l-3.6-10.4l-3.1-11.7L5178,250l-3.6,10.4h-10.1
		l-12.3-35.2h9.7l8,26.3l7.6-26.3H5184.9z"/>
	<path fill="#208CE5" d="M5244.2,225.2h8.3v35h-8.2l-0.4-5.1c-2,4.1-7.5,6.1-11.4,6.2c-10.4,0.1-18-6.3-18-18.6
		c0-12.1,8-18.4,18.2-18.3c4.7,0,9.2,2.2,11.1,5.7L5244.2,225.2z M5223.1,242.7c0,6.7,4.6,10.6,10.4,10.6c13.6,0,13.6-21.2,0-21.2
		C5227.8,232.1,5223.1,236,5223.1,242.7z"/>
	<path fill="#208CE5" d="M5292.8,225.2l-14.9,35.2h-9.4l-15-35.2h9.4l4.8,11.6l5.4,14.8l5.3-14.6l4.8-11.7H5292.8z"/>
</g>
<rect x="5610" y="482" display="none" fill="#9100CE" width="780" height="482"/>
<g display="none">
	<path display="inline" fill="#00414C" d="M5924.2,238.9l-6.6-9.6l-6.5,9.6l-8.4-6.2l7.3-8.6l-10.4-2.1l3.1-10.3l10.1,3.9l-0.6-10.4
		h10.5l-1.1,10.6l10.8-4.1l2.9,10.3l-10.6,2.1l7.7,8.6L5924.2,238.9z"/>
	<path display="inline" fill="#00414C" d="M5940.3,255.4c0,6.5-9.9,6.5-9.9,0C5930.4,248.8,5940.3,248.8,5940.3,255.4z"/>
</g>
<g>
	<path fill="#9100CE" d="M5982.8,255.8c-4,4-8.3,5.5-13.5,5.5c-10.2,0-18.6-6.1-18.6-18.5s8.4-18.5,18.6-18.5c5,0,8.8,1.4,12.6,5.2
		l-5.5,5.8c-2.1-1.8-4.6-2.8-7-2.8c-5.8,0-10.1,4.3-10.1,10.4c0,6.7,4.5,10.2,9.9,10.2c2.8,0,5.5-0.8,7.7-2.9L5982.8,255.8z"/>
	<path fill="#9100CE" d="M6013.3,225.2h8.3v35h-8.2l-0.4-5.1c-2,4.1-7.5,6.1-11.4,6.2c-10.4,0.1-18-6.3-18-18.6
		c0-12.1,8-18.4,18.2-18.3c4.7,0,9.2,2.2,11.1,5.7L6013.3,225.2z M5992.3,242.7c0,6.7,4.6,10.6,10.4,10.6c13.6,0,13.6-21.2,0-21.2
		C5996.9,232.1,5992.3,236,5992.3,242.7z"/>
	<path fill="#9100CE" d="M6050.7,234.5c-2.5-2.3-5.3-3.1-8.7-3.1c-4.1,0-6.4,1.3-6.4,3.5c0,2.3,2.1,3.5,6.5,3.8
		c6.6,0.4,15,1.9,15,11.2c0,6.2-5,11.5-15.1,11.5c-5.5,0-11.1-0.9-16.2-6.2l4.3-6.2c2.5,2.8,8.2,4.8,12.1,4.9
		c3.3,0.1,6.3-1.6,6.3-4.2c0-2.4-2-3.4-7-3.7c-6.6-0.5-14.5-2.9-14.5-10.9c0-8.1,8.4-10.9,14.8-10.9c5.5,0,9.6,1.1,13.6,4.6
		L6050.7,234.5z"/>
	<path fill="#9100CE" d="M6084.5,234.5c-2.5-2.3-5.3-3.1-8.7-3.1c-4.1,0-6.4,1.3-6.4,3.5c0,2.3,2.1,3.5,6.5,3.8
		c6.6,0.4,15,1.9,15,11.2c0,6.2-5,11.5-15.1,11.5c-5.5,0-11.1-0.9-16.2-6.2l4.3-6.2c2.5,2.8,8.2,4.8,12.1,4.9
		c3.3,0.1,6.3-1.6,6.3-4.2c0-2.4-2-3.4-7-3.7c-6.6-0.5-14.5-2.9-14.5-10.9c0-8.1,8.4-10.9,14.8-10.9c5.5,0,9.6,1.1,13.6,4.6
		L6084.5,234.5z"/>
	<path fill="#9100CE" d="M6102.8,245.8c0.6,4.3,4.3,7.5,10.4,7.5c3.2,0,7.4-1.2,9.4-3.3l5.5,5.5c-3.7,3.8-9.7,5.7-15.1,5.7
		c-12.1,0-19.2-7.5-19.2-18.7c0-10.6,7.2-18.3,18.6-18.3c11.7,0,19,7.2,17.7,21.7H6102.8z M6121.8,238.7c-0.6-4.5-4.1-6.8-9.1-6.8
		c-4.7,0-8.5,2.3-9.8,6.8H6121.8z"/>
	<path fill="#9100CE" d="M6146.5,215.4v9.9h9.7v7.5h-9.7v15.1c0,3.3,1.8,5,4.5,5c1.3,0,2.9-0.4,4.2-1.1l2.4,7.4
		c-2.5,1-4.5,1.4-7.2,1.5c-7.6,0.3-12.6-4-12.6-12.8v-15.1h-6.5v-7.5h6.5v-9L6146.5,215.4z"/>
	<path fill="#9100CE" d="M6173.7,215.4v9.9h9.7v7.5h-9.7v15.1c0,3.3,1.8,5,4.5,5c1.3,0,2.9-0.4,4.2-1.1l2.4,7.4
		c-2.5,1-4.5,1.4-7.2,1.5c-7.6,0.3-12.6-4-12.6-12.8v-15.1h-6.5v-7.5h6.5v-9L6173.7,215.4z"/>
	<path fill="#9100CE" d="M6196.2,245.8c0.6,4.3,4.3,7.5,10.4,7.5c3.2,0,7.4-1.2,9.4-3.3l5.5,5.5c-3.7,3.8-9.7,5.7-15.1,5.7
		c-12.1,0-19.2-7.5-19.2-18.7c0-10.6,7.2-18.3,18.6-18.3c11.7,0,19,7.2,17.7,21.7H6196.2z M6215.2,238.7c-0.6-4.5-4.1-6.8-9.1-6.8
		c-4.7,0-8.5,2.3-9.8,6.8H6215.2z"/>
</g>
<rect x="6410" y="482" display="none" fill="#D10081" width="780" height="482"/>
<g display="none">
	<path display="inline" fill="#00414C" d="M6724.2,238.9l-6.6-9.6l-6.5,9.6l-8.4-6.2l7.3-8.6l-10.4-2.1l3.1-10.3l10.1,3.9l-0.6-10.4
		h10.5l-1.1,10.6l10.8-4.1l2.9,10.3l-10.6,2.1l7.7,8.6L6724.2,238.9z"/>
	<path display="inline" fill="#00414C" d="M6740.3,255.4c0,6.5-9.9,6.5-9.9,0C6730.4,248.8,6740.3,248.8,6740.3,255.4z"/>
</g>
<g>
	<path fill="#D10081" d="M6761.4,210.5V230c3.1-4,7-5.3,10.9-5.3c9.9,0,14.3,6.7,14.3,17v18.5h-8.7v-18.4c0-6.4-3.3-9.1-8-9.1
		c-5.1,0-8.7,4.3-8.7,9.6v17.9h-8.7v-49.7H6761.4z"/>
	<path fill="#D10081" d="M6801.1,225.2v18.3c0,5.3,2.9,9.4,8.4,9.4c5.3,0,8.9-4.5,8.9-9.8v-17.9h8.6v35.1h-7.7l-0.6-4.8
		c-3.6,3.5-7,5.3-11.9,5.3c-8.4,0-14.5-6.3-14.5-17.2v-18.4H6801.1z"/>
	<path fill="#D10081" d="M6842.3,210.5V230c3.1-4,7-5.3,10.9-5.3c9.9,0,14.3,6.7,14.3,17v18.5h-8.7v-18.4c0-6.4-3.3-9.1-8-9.1
		c-5.1,0-8.7,4.3-8.7,9.6v17.9h-8.7v-49.7H6842.3z"/>
	<path fill="#D10081" d="M6872.8,225.5c0.1-10.5,8.9-15.2,19-15.2c10,0,19.2,4.3,19,15c0,10.3-9.4,11.4-13.6,14.1
		c-1.9,1.3-2.7,3.3-2.7,6.6v0.4h-9.4v-0.4c0.1-9.7,4-11.9,7.8-13.9c3.8-2,8.1-2.6,8.1-6.8c0-5.5-5-6.7-9.4-6.7c-4.5,0-9.2,2.6-9.3,7
		H6872.8z M6895.5,254.9c0,7.5-11.4,7.5-11.4,0C6884.1,247.4,6895.5,247.4,6895.5,254.9z"/>
	<path fill="#D10081" d="M6929.6,255.1c0,7.5-11.4,7.5-11.4,0C6918.2,247.6,6929.6,247.6,6929.6,255.1z M6928.5,210.6v36.6h-9.3
		v-36.6H6928.5z"/>
</g>
<g>
	<path fill="#00B1D8" d="M386.8,242.8c0,10.1-6.9,18.2-18.2,18.2c-11.4,0-18.2-8.2-18.2-18.2c0-10,7-18.2,18.1-18.2
		C379.7,224.5,386.8,232.8,386.8,242.8z M359.1,242.8c0,5.3,3.2,10.3,9.5,10.3s9.5-5,9.5-10.3c0-5.3-3.7-10.4-9.5-10.4
		C362.3,232.4,359.1,237.5,359.1,242.8z"/>
	<path fill="#00B1D8" d="M415,260.2v-18.7c0-4.6-2.4-8.8-7.2-8.8c-4.7,0-7.5,4.2-7.5,8.8v18.7h-8.7v-35.1h8l0.6,4.3
		c1.8-3.6,5.9-4.8,9.2-4.8c4.2,0,8.4,1.7,10.4,6.5c3.1-5,7.2-6.4,11.7-6.4c9.9,0,14.8,6.1,14.8,16.6v18.9h-8.7v-18.9
		c0-4.6-1.9-8.5-6.6-8.5c-4.7,0-7.6,4-7.6,8.7v18.7H415z"/>
	<path fill="#00B1D8" d="M480.1,260.2v-18.3c0-5.3-2.9-9.4-8.4-9.4c-5.3,0-8.9,4.5-8.9,9.8v17.9h-8.6v-35.1h7.7l0.6,4.8
		c3.5-3.5,7.1-5.3,11.5-5.3c8.2,0,14.8,6.2,14.8,17.2v18.4H480.1z"/>
	<path fill="#00B1D8" d="M504.6,215.4c0,6.7-10.2,6.7-10.2,0C494.3,208.6,504.6,208.6,504.6,215.4z M495.1,225.1v35.1h8.7v-35.1
		H495.1z"/>
	<path fill="#00B1D8" d="M538.3,225.2h8.3v35h-8.2l-0.4-5.1c-2,4.1-7.5,6.1-11.4,6.2c-10.4,0.1-18-6.3-18-18.6
		c0-12.1,8-18.4,18.2-18.3c4.7,0,9.2,2.2,11.1,5.7L538.3,225.2z M517.3,242.7c0,6.7,4.6,10.6,10.4,10.6c13.6,0,13.6-21.2,0-21.2
		C521.9,232.1,517.3,236,517.3,242.7z"/>
	<path fill="#00B1D8" d="M576.1,260.2v-18.7c0-4.6-2.4-8.8-7.2-8.8c-4.7,0-7.5,4.2-7.5,8.8v18.7h-8.7v-35.1h8l0.6,4.3
		c1.8-3.6,5.9-4.8,9.2-4.8c4.2,0,8.4,1.7,10.4,6.5c3.1-5,7.2-6.4,11.7-6.4c9.9,0,14.8,6.1,14.8,16.6v18.9H599v-18.9
		c0-4.6-1.9-8.5-6.6-8.5c-4.7,0-7.6,4-7.6,8.7v18.7H576.1z"/>
	<path fill="#00B1D8" d="M614.7,274.9v-49.6h8.1l0.6,4.8c2.7-3.9,7.4-5.6,11.4-5.6c10.8,0,18,8,18,18.3c0,10.2-6.5,18.3-17.7,18.3
		c-3.7,0-9.2-1.1-11.6-5v18.7H614.7z M644,242.8c0-5.5-3.7-9.9-9.9-9.9s-9.9,4.5-9.9,9.9s4,9.9,9.9,9.9S644,248.2,644,242.8z"/>
</g>
</svg>
