<?xml version="1.0" encoding="utf-8"?>
<!-- Generator: Adobe Illustrator 17.1.0, SVG Export Plug-In . SVG Version: 6.00 Build 0)  -->
<!DOCTYPE svg PUBLIC "-//W3C//DTD SVG 1.1//EN" "http://www.w3.org/Graphics/SVG/1.1/DTD/svg11.dtd">
<svg version="1.1" xmlns="http://www.w3.org/2000/svg" xmlns:xlink="http://www.w3.org/1999/xlink" x="0px" y="0px"
	 viewBox="0 0 220 250" enable-background="new 0 0 220 250" xml:space="preserve">
<g id="Layer_1">
	<path opacity="0.5" fill="#505050" d="M21.5,122.9c0-49.3,39.6-89.2,88.5-89.2s88.5,40,88.5,89.2c0,22.1-7.9,42.2-21.1,57.8
		c-3.7,4.3,6,35.7,6,35.7s-29.4-15.7-35.7-12.7c-11.4,5.4-24.2,8.5-37.6,8.5C61.1,212.1,21.5,172.2,21.5,122.9z"/>
	<path fill="none" stroke="#FFFFFF" stroke-width="5.2893" stroke-miterlimit="10" d="M21.5,122.9c0-49.3,39.6-89.2,88.5-89.2
		s88.5,40,88.5,89.2c0,22.1-7.9,42.2-21.1,57.8c-3.7,4.3,6,35.7,6,35.7s-29.4-15.7-35.7-12.7c-11.4,5.4-24.2,8.5-37.6,8.5
		C61.1,212.1,21.5,172.2,21.5,122.9z"/>
	<path fill="#FFFFFF" stroke="#505050" stroke-width="1.8658" stroke-miterlimit="10" d="M192,122.9c0-45.3-36.7-82-82-82
		s-82,36.7-82,82c0,20.3,7.4,38.8,19.5,53.1c3.4,4-1.6,28.9-1.6,28.9s23.3-10.5,29.2-7.8c10.6,5,22.4,7.8,34.9,7.8
		C155.3,204.9,192,168.2,192,122.9z"/>
	<g>
		<g>
			<path fill="none" stroke="#505050" stroke-width="2" stroke-miterlimit="10" d="M52.9,195.2c-0.1,0.9-0.2,1.5-0.2,1.5
				s0.5-0.2,1.4-0.5"/>
			<path fill="none" stroke="#505050" stroke-width="2" stroke-miterlimit="10" stroke-dasharray="3.0094,3.0094" d="M56.9,195.1
				c6.1-2.2,17.2-5.7,21-3.9c9.7,4.6,20.6,7.2,32.1,7.2c41.7,0,75.5-33.8,75.5-75.5S151.7,47.4,110,47.4s-75.5,33.8-75.5,75.5
				c0,18.7,6.8,35.7,18,48.9c2.4,2.8,1.2,16,0.6,21.9"/>
		</g>
	</g>
	<circle display="none" opacity="0.4" fill="#505050" cx="110" cy="123" r="39.5"/>
	<g display="none" opacity="0.5">
		
			<circle display="inline" fill="none" stroke="#505050" stroke-miterlimit="10" stroke-dasharray="3.9973,3.9973" cx="110" cy="123" r="43.3"/>
	</g>
	<circle display="none" fill="#505050" stroke="#FFFFFF" stroke-width="2" stroke-miterlimit="10" cx="110" cy="123" r="32.3"/>
</g>
<g id="Layer_3">
</g>
<g id="Layer_2">
</g>
</svg>
