<?xml version="1.0" encoding="utf-8"?>
<!-- Generator: Adobe Illustrator 17.1.0, SVG Export Plug-In . SVG Version: 6.00 Build 0)  -->
<!DOCTYPE svg PUBLIC "-//W3C//DTD SVG 1.1//EN" "http://www.w3.org/Graphics/SVG/1.1/DTD/svg11.dtd">
<svg version="1.1" xmlns="http://www.w3.org/2000/svg" xmlns:xlink="http://www.w3.org/1999/xlink" x="0px" y="0px"
	 viewBox="0 0 220 250" enable-background="new 0 0 220 250" xml:space="preserve">
<g id="Layer_1">
	
		<circle display="none" fill="none" stroke="#CCCCCC" stroke-width="1.131" stroke-miterlimit="10" stroke-dasharray="1.7021,1.7021" cx="110" cy="125" r="49.8"/>
	<circle opacity="0.7" fill="none" stroke="#505050" stroke-width="30" stroke-miterlimit="10" cx="110" cy="125" r="70.1"/>
	
		<ellipse display="none" fill="none" stroke="#FFFFFF" stroke-width="12" stroke-miterlimit="10" cx="108.9" cy="66.2" rx="10.1" ry="1.4"/>
	<path display="none" fill-rule="evenodd" clip-rule="evenodd" fill="#FFFFFF" d="M118.3,64.8c0,0-0.6,37.4-0.6,37.4
		s27,61.4,27,66.6c0,7.6-17.5,9.4-36.3,9.4c-18.8,0-36.3-2-36.3-9.4c0-4.8,28.2-66.4,28.2-66.4l0.1-37.6"/>
	<path display="none" fill="none" stroke="#FFFFFF" stroke-width="12" stroke-miterlimit="10" d="M117.9,64.8c0,0-0.6,37.4-0.6,37.4
		s27,61.4,27,66.6c0,7.6-17.5,9.4-36.3,9.4c-18.8,0-36.3-2-36.3-9.4c0-4.8,28.2-66.4,28.2-66.4l-0.2-37.5"/>
	
		<circle fill="none" stroke="#FFFFFF" stroke-width="7.7127" stroke-miterlimit="10" stroke-dasharray="10.9466,10.9466" cx="110" cy="125" r="83.6"/>
	<path display="none" fill-rule="evenodd" clip-rule="evenodd" fill="#505050" d="M129.9,130.5l12.7,30.9l1.7,7.6
		c0,0,2.5,9.1-35.9,9.1c-35.4,0-37.2-6.9-36.7-9.8l3.9-13.6l10.5-24.3c0,0,0.5-1.7,21.8-1.7S129.9,130.5,129.9,130.5z"/>
	<path display="none" fill="none" stroke="#505050" stroke-width="5" stroke-linejoin="bevel" stroke-miterlimit="10" d="
		M117.3,64.8c0,0,0,37.4,0,37.4s26.9,61.4,26.9,66.6c0,7.6-17.5,9.4-36.3,9.4c-18.8,0-36.3-2-36.3-9.4c0-4.8,28.2-66.4,28.2-66.4
		l-0.1-38.1"/>
	<path display="none" fill="none" stroke="#505050" stroke-width="4" stroke-miterlimit="10" d="M119.6,66.2c0-0.4-4.8-1.4-10.7-1.4
		c-5.9,0-10.7,1-10.7,1.4c0,0.4,4.8,0.7,10.7,0.7C114.8,66.9,119.6,66.6,119.6,66.2z"/>
	<path display="none" fill-rule="evenodd" clip-rule="evenodd" fill="#FFFFFF" d="M113.9,147.1c0-1.9-1.5-3.4-3.4-3.4
		c-1.9,0-3.4,1.5-3.4,3.4c0,1.9,1.5,3.4,3.4,3.4C112.4,150.5,113.9,149,113.9,147.1"/>
	<path display="none" fill-rule="evenodd" clip-rule="evenodd" fill="#FFFFFF" d="M112.5,168.1c0-1.1-0.9-2-2-2c-1.1,0-2,0.9-2,2
		c0,1.1,0.9,2,2,2C111.6,170.1,112.5,169.2,112.5,168.1"/>
	<path display="none" fill-rule="evenodd" clip-rule="evenodd" fill="#FFFFFF" d="M118.7,160.3c0-1.8-1.5-3.2-3.2-3.2
		c-1.8,0-3.2,1.5-3.2,3.2c0,1.8,1.5,3.2,3.2,3.2C117.2,163.5,118.7,162.1,118.7,160.3"/>
	<path display="none" fill-rule="evenodd" clip-rule="evenodd" fill="#FFFFFF" d="M109.6,156.8c0-2.9-2.3-5.2-5.2-5.2
		c-2.9,0-5.2,2.3-5.2,5.2c0,2.9,2.3,5.2,5.2,5.2C107.2,162.1,109.6,159.7,109.6,156.8"/>
	
		<circle display="none" fill="none" stroke="#505050" stroke-width="2.0431" stroke-miterlimit="10" stroke-dasharray="3.0749,3.0749" cx="110" cy="125" r="90"/>
</g>
<g id="Layer_3">
</g>
<g id="Layer_2">
</g>
</svg>
