<?xml version="1.0" encoding="utf-8"?>
<!-- Generator: Adobe Illustrator 17.1.0, SVG Export Plug-In . SVG Version: 6.00 Build 0)  -->
<!DOCTYPE svg PUBLIC "-//W3C//DTD SVG 1.1//EN" "http://www.w3.org/Graphics/SVG/1.1/DTD/svg11.dtd">
<svg version="1.1" xmlns="http://www.w3.org/2000/svg" xmlns:xlink="http://www.w3.org/1999/xlink" x="0px" y="0px"
	 viewBox="0 0 220 250" enable-background="new 0 0 220 250" xml:space="preserve">
<g id="Layer_1">
	<line fill="none" stroke="#CCCCCC" stroke-width="2" stroke-miterlimit="10" x1="123.1" y1="119" x2="127.2" y2="124.9"/>
	<g>
		<circle fill="none" stroke="#505050" stroke-miterlimit="10" stroke-dasharray="0.9953,2.986" cx="105.7" cy="123.1" r="66.5"/>
	</g>
	<line fill="none" stroke="#CCCCCC" stroke-width="2" stroke-miterlimit="10" x1="148.3" y1="169.5" x2="145.5" y2="160"/>
	<line fill="none" stroke="#CCCCCC" stroke-width="2" stroke-miterlimit="10" x1="172.1" y1="144.2" x2="158.6" y2="142.9"/>
	<line fill="none" stroke="#CCCCCC" stroke-width="2" stroke-miterlimit="10" x1="95.7" y1="183.2" x2="125.4" y2="155.6"/>
	<line fill="none" stroke="#CCCCCC" stroke-width="2" stroke-miterlimit="10" x1="72.8" y1="96.4" x2="52.9" y2="102.8"/>
	<line fill="none" stroke="#CCCCCC" stroke-width="2" stroke-miterlimit="10" x1="63.5" y1="139.1" x2="45.2" y2="121.3"/>
	<line fill="none" stroke="#CCCCCC" stroke-width="2" stroke-miterlimit="10" x1="82.2" y1="136.4" x2="89.3" y2="121.3"/>
	<line fill="none" stroke="#CCCCCC" stroke-width="2" stroke-miterlimit="10" x1="88.4" y1="65.6" x2="83.2" y2="56.7"/>
	<g>
		
			<circle fill="none" stroke="#505050" stroke-width="0.8581" stroke-miterlimit="10" stroke-dasharray="55.2669,9.6959" cx="105.7" cy="123.1" r="72.4"/>
	</g>
	<g>
		
			<circle fill="none" stroke="#505050" stroke-width="3" stroke-miterlimit="10" stroke-dasharray="59.777,10.4872" cx="105.7" cy="123.1" r="78.3"/>
	</g>
	<g>
		<path fill="#505050" d="M104.4,71.2c12.2,0,22.1,9.9,22.1,22.1s-9.9,22.1-22.1,22.1s-22.1-9.9-22.1-22.1S92.2,71.2,104.4,71.2
			 M104.4,61.2c-17.7,0-32.1,14.4-32.1,32.1s14.4,32.1,32.1,32.1s32.1-14.4,32.1-32.1S122.1,61.2,104.4,61.2L104.4,61.2z"/>
	</g>
	<g>
		<path fill="#505050" d="M74.3,144.2c3.1,0,5.6,2.5,5.6,5.6s-2.5,5.6-5.6,5.6c-3.1,0-5.6-2.5-5.6-5.6S71.2,144.2,74.3,144.2
			 M74.3,134.2c-8.6,0-15.6,7-15.6,15.6c0,8.6,7,15.6,15.6,15.6c8.6,0,15.6-7,15.6-15.6C89.9,141.2,82.9,134.2,74.3,134.2
			L74.3,134.2z"/>
	</g>
	<g>
		<path fill="#505050" d="M154.9,178.4c9.2,0,16.7,7.5,16.7,16.7s-7.5,16.7-16.7,16.7c-9.2,0-16.7-7.5-16.7-16.7
			S145.7,178.4,154.9,178.4 M154.9,168.4c-14.7,0-26.7,12-26.7,26.7s12,26.7,26.7,26.7s26.7-12,26.7-26.7S169.7,168.4,154.9,168.4
			L154.9,168.4z"/>
	</g>
	<g>
		<path fill="#505050" d="M78.3,183.2c6.4,0,11.6,5.2,11.6,11.6c0,6.4-5.2,11.6-11.6,11.6c-6.4,0-11.6-5.2-11.6-11.6
			C66.6,188.4,71.8,183.2,78.3,183.2 M78.3,173.2c-11.9,0-21.6,9.7-21.6,21.6c0,11.9,9.7,21.6,21.6,21.6s21.6-9.7,21.6-21.6
			C99.9,182.9,90.2,173.2,78.3,173.2L78.3,173.2z"/>
	</g>
	<g>
		<path fill="#505050" d="M34.2,96.2c5.2,0,9.4,4.2,9.4,9.4s-4.2,9.4-9.4,9.4s-9.4-4.2-9.4-9.4S29,96.2,34.2,96.2 M34.2,86.2
			c-10.7,0-19.4,8.7-19.4,19.4s8.7,19.4,19.4,19.4s19.4-8.7,19.4-19.4S44.9,86.2,34.2,86.2L34.2,86.2z"/>
	</g>
	<g>
		<path fill="#505050" d="M75.4,37.9c3.2,0,5.8,2.6,5.8,5.8s-2.6,5.8-5.8,5.8s-5.8-2.6-5.8-5.8S72.2,37.9,75.4,37.9 M75.4,27.9
			c-8.7,0-15.8,7.1-15.8,15.8s7.1,15.8,15.8,15.8s15.8-7.1,15.8-15.8S84.1,27.9,75.4,27.9L75.4,27.9z"/>
	</g>
	<g>
		<path fill="#505050" d="M188.2,139.9c3.8,0,6.9,3.1,6.9,6.9s-3.1,6.9-6.9,6.9c-3.8,0-6.9-3.1-6.9-6.9S184.4,139.9,188.2,139.9
			 M188.2,129.9c-9.3,0-16.9,7.6-16.9,16.9s7.6,16.9,16.9,16.9s16.9-7.6,16.9-16.9S197.5,129.9,188.2,129.9L188.2,129.9z"/>
	</g>
	<g>
		<path fill="#505050" d="M138.8,130.8c5.7,0,10.3,4.6,10.3,10.3c0,5.7-4.6,10.3-10.3,10.3c-5.7,0-10.3-4.6-10.3-10.3
			C128.5,135.4,133.1,130.8,138.8,130.8 M138.8,120.8c-11.2,0-20.3,9.1-20.3,20.3s9.1,20.3,20.3,20.3s20.3-9.1,20.3-20.3
			S150,120.8,138.8,120.8L138.8,120.8z"/>
	</g>
	<g>
		<path fill="#FFFFFF" d="M104.4,71.2c12.2,0,22.1,9.9,22.1,22.1s-9.9,22.1-22.1,22.1s-22.1-9.9-22.1-22.1S92.2,71.2,104.4,71.2
			 M104.4,62.2c-17.2,0-31.1,14-31.1,31.1s14,31.1,31.1,31.1s31.1-14,31.1-31.1S121.5,62.2,104.4,62.2L104.4,62.2z"/>
	</g>
	<g>
		<path fill="#FFFFFF" d="M74.3,144.2c3.1,0,5.6,2.5,5.6,5.6s-2.5,5.6-5.6,5.6c-3.1,0-5.6-2.5-5.6-5.6S71.2,144.2,74.3,144.2
			 M74.3,135.2c-8,0-14.6,6.5-14.6,14.6s6.5,14.6,14.6,14.6s14.6-6.5,14.6-14.6S82.4,135.2,74.3,135.2L74.3,135.2z"/>
	</g>
	<g>
		<path fill="#FFFFFF" d="M154.9,178.4c9.2,0,16.7,7.5,16.7,16.7c0,9.2-7.5,16.7-16.7,16.7c-9.2,0-16.7-7.5-16.7-16.7
			C138.2,185.9,145.7,178.4,154.9,178.4 M154.9,169.4c-14.2,0-25.7,11.5-25.7,25.7s11.5,25.7,25.7,25.7s25.7-11.5,25.7-25.7
			S169.1,169.4,154.9,169.4L154.9,169.4z"/>
	</g>
	<g>
		<path fill="#FFFFFF" d="M78.3,183.2c6.4,0,11.6,5.2,11.6,11.6c0,6.4-5.2,11.6-11.6,11.6c-6.4,0-11.6-5.2-11.6-11.6
			C66.6,188.4,71.8,183.2,78.3,183.2 M78.3,174.2c-11.4,0-20.6,9.3-20.6,20.6s9.3,20.6,20.6,20.6s20.6-9.3,20.6-20.6
			S89.6,174.2,78.3,174.2L78.3,174.2z"/>
	</g>
	<g>
		<path fill="#FFFFFF" d="M34.2,96.2c5.2,0,9.4,4.2,9.4,9.4s-4.2,9.4-9.4,9.4s-9.4-4.2-9.4-9.4S29,96.2,34.2,96.2 M34.2,87.2
			c-10.2,0-18.4,8.3-18.4,18.4s8.3,18.4,18.4,18.4s18.4-8.3,18.4-18.4S44.3,87.2,34.2,87.2L34.2,87.2z"/>
	</g>
	<g>
		<path fill="#FFFFFF" d="M75.4,37.9c3.2,0,5.8,2.6,5.8,5.8s-2.6,5.8-5.8,5.8s-5.8-2.6-5.8-5.8S72.2,37.9,75.4,37.9 M75.4,28.9
			c-8.2,0-14.8,6.6-14.8,14.8s6.6,14.8,14.8,14.8s14.8-6.6,14.8-14.8S83.5,28.9,75.4,28.9L75.4,28.9z"/>
	</g>
	<g>
		<path fill="#FFFFFF" d="M188.2,139.9c3.8,0,6.9,3.1,6.9,6.9c0,3.8-3.1,6.9-6.9,6.9c-3.8,0-6.9-3.1-6.9-6.9
			C181.4,143,184.4,139.9,188.2,139.9 M188.2,130.9c-8.7,0-15.9,7.1-15.9,15.9c0,8.7,7.1,15.9,15.9,15.9s15.9-7.1,15.9-15.9
			C204.1,138,197,130.9,188.2,130.9L188.2,130.9z"/>
	</g>
	<g>
		<path fill="#FFFFFF" d="M138.8,130.8c5.7,0,10.3,4.6,10.3,10.3s-4.6,10.3-10.3,10.3c-5.7,0-10.3-4.6-10.3-10.3
			S133.1,130.8,138.8,130.8 M138.8,121.8c-10.6,0-19.3,8.6-19.3,19.3s8.6,19.3,19.3,19.3s19.3-8.6,19.3-19.3
			S149.4,121.8,138.8,121.8L138.8,121.8z"/>
	</g>
	<path fill="none" stroke="#FFFFFF" stroke-miterlimit="10" d="M104.4,118.3c-13.8,0-25-11.2-25-25s11.2-25,25-25
		c13.8,0,25,11.2,25,25S118.2,118.3,104.4,118.3L104.4,118.3z M104.4,70.9C92,70.9,82,81,82,93.3c0,12.4,10.1,22.4,22.4,22.4
		c12.4,0,22.4-10.1,22.4-22.4C126.8,81,116.7,70.9,104.4,70.9L104.4,70.9z"/>
	<path fill="none" stroke="#FFFFFF" stroke-miterlimit="10" d="M138.8,154.5c-7.4,0-13.4-6-13.4-13.4c0-7.4,6-13.4,13.4-13.4
		c7.4,0,13.4,6,13.4,13.4C152.2,148.5,146.2,154.5,138.8,154.5L138.8,154.5z M138.8,130.2c-6,0-10.9,4.9-10.9,10.9
		c0,6,4.9,10.9,10.9,10.9c6,0,10.9-4.9,10.9-10.9C149.7,135.1,144.8,130.2,138.8,130.2L138.8,130.2z"/>
	<path fill="none" stroke="#FFFFFF" stroke-miterlimit="10" d="M34.2,118.3c-7,0-12.7-5.7-12.7-12.7c0-7,5.7-12.7,12.7-12.7
		c7,0,12.7,5.7,12.7,12.7C46.9,112.6,41.2,118.3,34.2,118.3L34.2,118.3z M34.2,95.4c-5.6,0-10.2,4.6-10.2,10.2
		c0,5.6,4.6,10.2,10.2,10.2s10.2-4.6,10.2-10.2C44.3,100,39.8,95.4,34.2,95.4L34.2,95.4z"/>
	<path fill="none" stroke="#FFFFFF" stroke-miterlimit="10" d="M74.3,158.5c-4.8,0-8.7-3.9-8.7-8.7s3.9-8.7,8.7-8.7
		c4.8,0,8.7,3.9,8.7,8.7S79.1,158.5,74.3,158.5L74.3,158.5z M74.3,143.6c-3.4,0-6.2,2.8-6.2,6.2c0,3.4,2.8,6.2,6.2,6.2
		c3.4,0,6.2-2.8,6.2-6.2C80.5,146.4,77.7,143.6,74.3,143.6L74.3,143.6z"/>
	<path fill="none" stroke="#FFFFFF" stroke-miterlimit="10" d="M75.4,52.4c-4.8,0-8.7-3.9-8.7-8.7s3.9-8.7,8.7-8.7
		c4.8,0,8.7,3.9,8.7,8.7S80.2,52.4,75.4,52.4L75.4,52.4z M75.4,37.5c-3.4,0-6.2,2.8-6.2,6.2c0,3.4,2.8,6.2,6.2,6.2
		c3.4,0,6.2-2.8,6.2-6.2C81.5,40.3,78.8,37.5,75.4,37.5L75.4,37.5z"/>
	<path fill="none" stroke="#FFFFFF" stroke-miterlimit="10" d="M154.9,215c-10.9,0-19.8-8.9-19.8-19.8c0-10.9,8.9-19.8,19.8-19.8
		c10.9,0,19.8,8.9,19.8,19.8C174.7,206.1,165.8,215,154.9,215L154.9,215z M154.9,177.9c-9.5,0-17.3,7.7-17.3,17.3
		s7.7,17.3,17.3,17.3c9.5,0,17.3-7.7,17.3-17.3C172.2,185.7,164.4,177.9,154.9,177.9L154.9,177.9z"/>
	<path fill="none" stroke="#FFFFFF" stroke-miterlimit="10" d="M188.2,157.1c-5.7,0-10.3-4.6-10.3-10.3s4.6-10.3,10.3-10.3
		s10.3,4.6,10.3,10.3S193.9,157.1,188.2,157.1L188.2,157.1z M188.2,139c-4.3,0-7.8,3.5-7.8,7.8c0,4.3,3.5,7.8,7.8,7.8
		s7.8-3.5,7.8-7.8C196,142.5,192.5,139,188.2,139L188.2,139z"/>
	<path fill="none" stroke="#FFFFFF" stroke-miterlimit="10" d="M78.3,209.7c-8.2,0-14.8-6.6-14.8-14.8c0-8.2,6.6-14.8,14.8-14.8
		s14.8,6.6,14.8,14.8C93.1,203,86.4,209.7,78.3,209.7L78.3,209.7z M78.3,182.6c-6.7,0-12.2,5.5-12.2,12.2c0,6.7,5.5,12.2,12.2,12.2
		c6.7,0,12.2-5.5,12.2-12.2C90.5,188.1,85,182.6,78.3,182.6L78.3,182.6z"/>
	<g>
		<g>
			<path fill="none" stroke="#505050" stroke-width="5" stroke-miterlimit="10" stroke-dasharray="3.0754,3.0754" d="M34.2,118.3
				c-7,0-12.7-5.7-12.7-12.7c0-7,5.7-12.7,12.7-12.7c7,0,12.7,5.7,12.7,12.7C46.9,112.6,41.2,118.3,34.2,118.3z"/>
			<path fill="none" stroke="#505050" stroke-width="5" stroke-miterlimit="10" stroke-dasharray="3.1923,3.1923" d="M34.2,95.4
				c-5.6,0-10.2,4.6-10.2,10.2c0,5.6,4.6,10.2,10.2,10.2s10.2-4.6,10.2-10.2C44.3,100,39.8,95.4,34.2,95.4z"/>
		</g>
	</g>
	<g>
		<g>
			<path fill="none" stroke="#505050" stroke-width="5" stroke-miterlimit="10" stroke-dasharray="3.0173,3.0173" d="M104.4,118.3
				c-13.8,0-25-11.2-25-25s11.2-25,25-25c13.8,0,25,11.2,25,25S118.2,118.3,104.4,118.3z"/>
			<path fill="none" stroke="#505050" stroke-width="5" stroke-miterlimit="10" stroke-dasharray="3.0607,3.0607" d="M104.4,70.9
				C92,70.9,82,81,82,93.3c0,12.4,10.1,22.4,22.4,22.4c12.4,0,22.4-10.1,22.4-22.4C126.8,81,116.7,70.9,104.4,70.9z"/>
		</g>
	</g>
	<g>
		<g>
			<path fill="none" stroke="#505050" stroke-width="5" stroke-miterlimit="10" stroke-dasharray="3.0099,3.0099" d="M138.8,154.5
				c-7.4,0-13.4-6-13.4-13.4c0-7.4,6-13.4,13.4-13.4c7.4,0,13.4,6,13.4,13.4C152.2,148.5,146.2,154.5,138.8,154.5z"/>
			<path fill="none" stroke="#505050" stroke-width="5" stroke-miterlimit="10" stroke-dasharray="3.0988,3.0988" d="M138.8,130.2
				c-6,0-10.9,4.9-10.9,10.9c0,6,4.9,10.9,10.9,10.9c6,0,10.9-4.9,10.9-10.9C149.7,135.1,144.8,130.2,138.8,130.2z"/>
		</g>
	</g>
	<g>
		<g>
			<path fill="none" stroke="#505050" stroke-width="5" stroke-miterlimit="10" stroke-dasharray="3.0438,3.0438" d="M74.3,158.5
				c-4.8,0-8.7-3.9-8.7-8.7s3.9-8.7,8.7-8.7c4.8,0,8.7,3.9,8.7,8.7S79.1,158.5,74.3,158.5z"/>
			<path fill="none" stroke="#505050" stroke-width="5" stroke-miterlimit="10" stroke-dasharray="3.2199,3.2199" d="M74.3,143.6
				c-3.4,0-6.2,2.8-6.2,6.2c0,3.4,2.8,6.2,6.2,6.2c3.4,0,6.2-2.8,6.2-6.2C80.5,146.4,77.7,143.6,74.3,143.6z"/>
		</g>
	</g>
	<g>
		<g>
			<path fill="none" stroke="#505050" stroke-width="5" stroke-miterlimit="10" stroke-dasharray="3.0438,3.0438" d="M75.4,52.4
				c-4.8,0-8.7-3.9-8.7-8.7s3.9-8.7,8.7-8.7s8.7,3.9,8.7,8.7S80.2,52.4,75.4,52.4z"/>
			<path fill="none" stroke="#505050" stroke-width="5" stroke-miterlimit="10" stroke-dasharray="3.2199,3.2199" d="M75.4,37.5
				c-3.4,0-6.2,2.8-6.2,6.2c0,3.4,2.8,6.2,6.2,6.2c3.4,0,6.2-2.8,6.2-6.2C81.5,40.3,78.8,37.5,75.4,37.5z"/>
		</g>
	</g>
	<g>
		<g>
			<path fill="none" stroke="#505050" stroke-width="5" stroke-miterlimit="10" stroke-dasharray="3.1136,3.1136" d="M154.9,215
				c-10.9,0-19.8-8.9-19.8-19.8c0-10.9,8.9-19.8,19.8-19.8c10.9,0,19.8,8.9,19.8,19.8C174.7,206.1,165.8,215,154.9,215z"/>
			<path fill="none" stroke="#505050" stroke-width="5" stroke-miterlimit="10" stroke-dasharray="3.0123,3.0123" d="M154.9,177.9
				c-9.5,0-17.3,7.7-17.3,17.3s7.7,17.3,17.3,17.3c9.5,0,17.3-7.7,17.3-17.3C172.2,185.7,164.4,177.9,154.9,177.9z"/>
		</g>
	</g>
	<g>
		<g>
			<path fill="none" stroke="#505050" stroke-width="5" stroke-miterlimit="10" stroke-dasharray="2.9483,2.9483" d="M188.2,157.1
				c-5.7,0-10.3-4.6-10.3-10.3s4.6-10.3,10.3-10.3c5.7,0,10.3,4.6,10.3,10.3S193.9,157.1,188.2,157.1z"/>
			<path fill="none" stroke="#505050" stroke-width="5" stroke-miterlimit="10" stroke-dasharray="3.0452,3.0452" d="M188.2,139
				c-4.3,0-7.8,3.5-7.8,7.8c0,4.3,3.5,7.8,7.8,7.8c4.3,0,7.8-3.5,7.8-7.8C196,142.5,192.5,139,188.2,139z"/>
		</g>
	</g>
	<g>
		<g>
			<path fill="none" stroke="#505050" stroke-width="5" stroke-miterlimit="10" stroke-dasharray="3.0962,3.0962" d="M78.3,209.7
				c-8.2,0-14.8-6.6-14.8-14.8c0-8.2,6.6-14.8,14.8-14.8s14.8,6.6,14.8,14.8C93.1,203,86.4,209.7,78.3,209.7z"/>
			<path fill="none" stroke="#505050" stroke-width="5" stroke-miterlimit="10" stroke-dasharray="3.199,3.199" d="M78.3,182.6
				c-6.7,0-12.2,5.5-12.2,12.2c0,6.7,5.5,12.2,12.2,12.2c6.7,0,12.2-5.5,12.2-12.2C90.5,188.1,85,182.6,78.3,182.6z"/>
		</g>
	</g>
	<path fill="none" stroke="#FFFFFF" stroke-width="3" stroke-miterlimit="10" d="M34.2,118.3c-7,0-12.7-5.7-12.7-12.7
		c0-7,5.7-12.7,12.7-12.7c7,0,12.7,5.7,12.7,12.7C46.9,112.6,41.2,118.3,34.2,118.3L34.2,118.3z M34.2,95.4
		c-5.6,0-10.2,4.6-10.2,10.2c0,5.6,4.6,10.2,10.2,10.2s10.2-4.6,10.2-10.2C44.3,100,39.8,95.4,34.2,95.4L34.2,95.4z"/>
	<path fill="none" stroke="#FFFFFF" stroke-width="3" stroke-miterlimit="10" d="M104.4,118.3c-13.8,0-25-11.2-25-25s11.2-25,25-25
		c13.8,0,25,11.2,25,25S118.2,118.3,104.4,118.3L104.4,118.3z M104.4,70.9C92,70.9,82,81,82,93.3c0,12.4,10.1,22.4,22.4,22.4
		c12.4,0,22.4-10.1,22.4-22.4C126.8,81,116.7,70.9,104.4,70.9L104.4,70.9z"/>
	<path fill="none" stroke="#FFFFFF" stroke-width="3" stroke-miterlimit="10" d="M138.8,154.5c-7.4,0-13.4-6-13.4-13.4
		c0-7.4,6-13.4,13.4-13.4c7.4,0,13.4,6,13.4,13.4C152.2,148.5,146.2,154.5,138.8,154.5L138.8,154.5z M138.8,130.2
		c-6,0-10.9,4.9-10.9,10.9c0,6,4.9,10.9,10.9,10.9c6,0,10.9-4.9,10.9-10.9C149.7,135.1,144.8,130.2,138.8,130.2L138.8,130.2z"/>
	<path fill="none" stroke="#FFFFFF" stroke-width="3" stroke-miterlimit="10" d="M74.3,158.5c-4.8,0-8.7-3.9-8.7-8.7
		s3.9-8.7,8.7-8.7c4.8,0,8.7,3.9,8.7,8.7S79.1,158.5,74.3,158.5L74.3,158.5z M74.3,143.6c-3.4,0-6.2,2.8-6.2,6.2
		c0,3.4,2.8,6.2,6.2,6.2c3.4,0,6.2-2.8,6.2-6.2C80.5,146.4,77.7,143.6,74.3,143.6L74.3,143.6z"/>
	<path fill="none" stroke="#FFFFFF" stroke-width="3" stroke-miterlimit="10" d="M75.4,52.4c-4.8,0-8.7-3.9-8.7-8.7s3.9-8.7,8.7-8.7
		c4.8,0,8.7,3.9,8.7,8.7S80.2,52.4,75.4,52.4L75.4,52.4z M75.4,37.5c-3.4,0-6.2,2.8-6.2,6.2c0,3.4,2.8,6.2,6.2,6.2
		c3.4,0,6.2-2.8,6.2-6.2C81.5,40.3,78.8,37.5,75.4,37.5L75.4,37.5z"/>
	<path fill="none" stroke="#FFFFFF" stroke-width="3" stroke-miterlimit="10" d="M154.9,215c-10.9,0-19.8-8.9-19.8-19.8
		c0-10.9,8.9-19.8,19.8-19.8c10.9,0,19.8,8.9,19.8,19.8C174.7,206.1,165.8,215,154.9,215L154.9,215z M154.9,177.9
		c-9.5,0-17.3,7.7-17.3,17.3s7.7,17.3,17.3,17.3c9.5,0,17.3-7.7,17.3-17.3C172.2,185.7,164.4,177.9,154.9,177.9L154.9,177.9z"/>
	<path fill="none" stroke="#FFFFFF" stroke-width="3" stroke-miterlimit="10" d="M188.2,157.1c-5.7,0-10.3-4.6-10.3-10.3
		s4.6-10.3,10.3-10.3s10.3,4.6,10.3,10.3S193.9,157.1,188.2,157.1L188.2,157.1z M188.2,139c-4.3,0-7.8,3.5-7.8,7.8
		c0,4.3,3.5,7.8,7.8,7.8s7.8-3.5,7.8-7.8C196,142.5,192.5,139,188.2,139L188.2,139z"/>
	<path fill="none" stroke="#FFFFFF" stroke-width="3" stroke-miterlimit="10" d="M78.3,209.7c-8.2,0-14.8-6.6-14.8-14.8
		c0-8.2,6.6-14.8,14.8-14.8s14.8,6.6,14.8,14.8C93.1,203,86.4,209.7,78.3,209.7L78.3,209.7z M78.3,182.6c-6.7,0-12.2,5.5-12.2,12.2
		c0,6.7,5.5,12.2,12.2,12.2c6.7,0,12.2-5.5,12.2-12.2C90.5,188.1,85,182.6,78.3,182.6L78.3,182.6z"/>
	<path fill="#505050" d="M104.4,118.3c-13.8,0-25-11.2-25-25s11.2-25,25-25c13.8,0,25,11.2,25,25S118.2,118.3,104.4,118.3
		L104.4,118.3z M104.4,70.9C92,70.9,82,81,82,93.3c0,12.4,10.1,22.4,22.4,22.4c12.4,0,22.4-10.1,22.4-22.4
		C126.8,81,116.7,70.9,104.4,70.9L104.4,70.9z"/>
	<path fill="#505050" d="M138.8,154.5c-7.4,0-13.4-6-13.4-13.4c0-7.4,6-13.4,13.4-13.4c7.4,0,13.4,6,13.4,13.4
		C152.2,148.5,146.2,154.5,138.8,154.5L138.8,154.5z M138.8,130.2c-6,0-10.9,4.9-10.9,10.9c0,6,4.9,10.9,10.9,10.9
		c6,0,10.9-4.9,10.9-10.9C149.7,135.1,144.8,130.2,138.8,130.2L138.8,130.2z"/>
	<path fill="#505050" d="M34.2,118.3c-7,0-12.7-5.7-12.7-12.7c0-7,5.7-12.7,12.7-12.7c7,0,12.7,5.7,12.7,12.7
		C46.9,112.6,41.2,118.3,34.2,118.3L34.2,118.3z M34.2,95.4c-5.6,0-10.2,4.6-10.2,10.2c0,5.6,4.6,10.2,10.2,10.2s10.2-4.6,10.2-10.2
		C44.3,100,39.8,95.4,34.2,95.4L34.2,95.4z"/>
	<path fill="#505050" d="M74.3,158.5c-4.8,0-8.7-3.9-8.7-8.7s3.9-8.7,8.7-8.7c4.8,0,8.7,3.9,8.7,8.7S79.1,158.5,74.3,158.5
		L74.3,158.5z M74.3,143.6c-3.4,0-6.2,2.8-6.2,6.2c0,3.4,2.8,6.2,6.2,6.2c3.4,0,6.2-2.8,6.2-6.2C80.5,146.4,77.7,143.6,74.3,143.6
		L74.3,143.6z"/>
	<path fill="#505050" d="M75.4,52.4c-4.8,0-8.7-3.9-8.7-8.7s3.9-8.7,8.7-8.7c4.8,0,8.7,3.9,8.7,8.7S80.2,52.4,75.4,52.4L75.4,52.4z
		 M75.4,37.5c-3.4,0-6.2,2.8-6.2,6.2c0,3.4,2.8,6.2,6.2,6.2c3.4,0,6.2-2.8,6.2-6.2C81.5,40.3,78.8,37.5,75.4,37.5L75.4,37.5z"/>
	<path fill="#505050" d="M154.9,215c-10.9,0-19.8-8.9-19.8-19.8c0-10.9,8.9-19.8,19.8-19.8c10.9,0,19.8,8.9,19.8,19.8
		C174.7,206.1,165.8,215,154.9,215L154.9,215z M154.9,177.9c-9.5,0-17.3,7.7-17.3,17.3s7.7,17.3,17.3,17.3c9.5,0,17.3-7.7,17.3-17.3
		C172.2,185.7,164.4,177.9,154.9,177.9L154.9,177.9z"/>
	<path fill="#505050" d="M188.2,157.1c-5.7,0-10.3-4.6-10.3-10.3s4.6-10.3,10.3-10.3s10.3,4.6,10.3,10.3S193.9,157.1,188.2,157.1
		L188.2,157.1z M188.2,139c-4.3,0-7.8,3.5-7.8,7.8c0,4.3,3.5,7.8,7.8,7.8s7.8-3.5,7.8-7.8C196,142.5,192.5,139,188.2,139L188.2,139z
		"/>
	<path fill="#505050" d="M78.3,209.7c-8.2,0-14.8-6.6-14.8-14.8c0-8.2,6.6-14.8,14.8-14.8s14.8,6.6,14.8,14.8
		C93.1,203,86.4,209.7,78.3,209.7L78.3,209.7z M78.3,182.6c-6.7,0-12.2,5.5-12.2,12.2c0,6.7,5.5,12.2,12.2,12.2
		c6.7,0,12.2-5.5,12.2-12.2C90.5,188.1,85,182.6,78.3,182.6L78.3,182.6z"/>
	<circle fill="#FFFFFF" cx="104.4" cy="93.3" r="21.3"/>
	<circle fill="#FFFFFF" cx="74.3" cy="149.8" r="5.6"/>
	<circle fill="#FFFFFF" cx="154.9" cy="195.2" r="16.7"/>
	<circle fill="#FFFFFF" cx="78.3" cy="194.9" r="11.6"/>
	<circle fill="#FFFFFF" cx="34.2" cy="105.6" r="9.4"/>
	<circle fill="#FFFFFF" cx="75.4" cy="43.7" r="5.8"/>
	<circle fill="#FFFFFF" cx="188.2" cy="146.8" r="6.9"/>
	<circle fill="#FFFFFF" cx="138.8" cy="141.1" r="10.3"/>
</g>
<g id="Layer_3">
</g>
<g id="Layer_2">
</g>
</svg>
