<?xml version="1.0" encoding="utf-8"?>
<!-- Generator: Adobe Illustrator 17.1.0, SVG Export Plug-In . SVG Version: 6.00 Build 0)  -->
<!DOCTYPE svg PUBLIC "-//W3C//DTD SVG 1.1//EN" "http://www.w3.org/Graphics/SVG/1.1/DTD/svg11.dtd">
<svg version="1.1" id="Layer_1" xmlns="http://www.w3.org/2000/svg" xmlns:xlink="http://www.w3.org/1999/xlink" x="0px" y="0px"
	 viewBox="0 0 522.5 291.5" enable-background="new 0 0 522.5 291.5" xml:space="preserve">
<path fill="none" stroke="#FFFFFF" stroke-width="1.1204" stroke-miterlimit="10" stroke-dasharray="45,10" d="M359.8,223.2
	c17.2,17.5,41.1,28.4,67.6,28.4c52.2,0,94.6-42.3,94.6-94.6c0-25.5-10.1-48.7-26.6-65.7"/>
<circle opacity="0.5" fill="#20C3F3" cx="184.4" cy="127.1" r="113.3"/>
<rect x="165" y="112.8" transform="matrix(0.8276 -0.5613 0.5613 0.8276 -21.7802 201.9463)" fill="#20C3F3" width="305.7" height="47.3"/>
<rect x="257.4" y="175.3" transform="matrix(-0.8276 0.5613 -0.5613 -0.8276 731.4452 138.3614)" fill="#20C3F3" width="174.2" height="12.5"/>
<g>
	
		<circle fill="none" stroke="#FFFFFF" stroke-width="1.1204" stroke-miterlimit="10" stroke-dasharray="11.1233,5.5616" cx="184.2" cy="125.4" r="124.8"/>
</g>
<g>
	<defs>
		<path id="SVGID_1_" d="M133.8,198.4h-20.6v-131h20.6v56.1h23.4V67.4h21v131h-21v-56.1h-23.4V198.4z"/>
	</defs>
	<clipPath id="SVGID_2_">
		<use xlink:href="#SVGID_1_"  overflow="visible"/>
	</clipPath>
	<polygon opacity="0.8" clip-path="url(#SVGID_2_)" fill="#EBFCFF" points="66.1,135.4 171.3,53.4 207.8,118.4 101.4,187.6 	"/>
</g>
<path fill="#B8F2FF" d="M213.7,122.6H242v18.7h-28.3v38.4h35.6v18.7h-56.1v-131h56.1v18.7h-35.6V122.6z"/>
<g>
	<path fill="#58D3F7" d="M262,67.4h20.6v112.3h33.9v18.7H262V67.4z"/>
	<g>
		<g>
			<polyline fill="none" stroke="#FFFFFF" stroke-width="2.3203" stroke-miterlimit="10" points="262,73.2 262,67.4 267.8,67.4 			
				"/>
			<polyline fill="none" stroke="#FFFFFF" stroke-width="2.3203" stroke-miterlimit="10" points="276.7,67.4 282.5,67.4 282.5,73.2 
							"/>
			
				<line fill="none" stroke="#FFFFFF" stroke-width="2.3203" stroke-miterlimit="10" stroke-dasharray="12.5856,6.2928" x1="282.5" y1="79.5" x2="282.5" y2="170.7"/>
			<polyline fill="none" stroke="#FFFFFF" stroke-width="2.3203" stroke-miterlimit="10" points="282.5,173.8 282.5,179.6 
				288.3,179.6 			"/>
			
				<line fill="none" stroke="#FFFFFF" stroke-width="2.3203" stroke-miterlimit="10" stroke-dasharray="11.1389,5.5695" x1="293.9" y1="179.6" x2="307.8" y2="179.6"/>
			<polyline fill="none" stroke="#FFFFFF" stroke-width="2.3203" stroke-miterlimit="10" points="310.6,179.6 316.4,179.6 
				316.4,185.4 			"/>
			<polyline fill="none" stroke="#FFFFFF" stroke-width="2.3203" stroke-miterlimit="10" points="316.4,192.6 316.4,198.4 
				310.6,198.4 			"/>
			
				<line fill="none" stroke="#FFFFFF" stroke-width="2.3203" stroke-miterlimit="10" stroke-dasharray="12.2467,6.1234" x1="304.5" y1="198.4" x2="270.8" y2="198.4"/>
			<polyline fill="none" stroke="#FFFFFF" stroke-width="2.3203" stroke-miterlimit="10" points="267.8,198.4 262,198.4 262,192.6 
							"/>
			
				<line fill="none" stroke="#FFFFFF" stroke-width="2.3203" stroke-miterlimit="10" stroke-dasharray="10.8545,5.4273" x1="262" y1="187.1" x2="262" y2="75.9"/>
		</g>
	</g>
</g>
<g>
	<g>
		<path fill="#FFFFFF" d="M325.4,67.4H346v112.3h33.9v18.7h-54.5V67.4z"/>
	</g>
	<g>
		<g>
			<polyline fill="none" stroke="#58D3F7" stroke-width="3" stroke-miterlimit="10" points="325.4,73.2 325.4,67.4 331.2,67.4 			
				"/>
			<polyline fill="none" stroke="#58D3F7" stroke-width="3" stroke-miterlimit="10" points="340.2,67.4 346,67.4 346,73.2 			"/>
			
				<line fill="none" stroke="#58D3F7" stroke-width="3" stroke-miterlimit="10" stroke-dasharray="12.5856,6.2928" x1="346" y1="79.5" x2="346" y2="170.7"/>
			<polyline fill="none" stroke="#58D3F7" stroke-width="3" stroke-miterlimit="10" points="346,173.8 346,179.6 351.8,179.6 			"/>
			
				<line fill="none" stroke="#58D3F7" stroke-width="3" stroke-miterlimit="10" stroke-dasharray="11.1389,5.5695" x1="357.3" y1="179.6" x2="371.3" y2="179.6"/>
			<polyline fill="none" stroke="#58D3F7" stroke-width="3" stroke-miterlimit="10" points="374,179.6 379.8,179.6 379.8,185.4 			
				"/>
			<polyline fill="none" stroke="#58D3F7" stroke-width="3" stroke-miterlimit="10" points="379.8,192.6 379.8,198.4 374,198.4 			
				"/>
			
				<line fill="none" stroke="#58D3F7" stroke-width="3" stroke-miterlimit="10" stroke-dasharray="12.2467,6.1234" x1="367.9" y1="198.4" x2="334.2" y2="198.4"/>
			<polyline fill="none" stroke="#58D3F7" stroke-width="3" stroke-miterlimit="10" points="331.2,198.4 325.4,198.4 325.4,192.6 
							"/>
			
				<line fill="none" stroke="#58D3F7" stroke-width="3" stroke-miterlimit="10" stroke-dasharray="10.8545,5.4273" x1="325.4" y1="187.1" x2="325.4" y2="75.9"/>
		</g>
	</g>
</g>
<g>
	<path fill="#B8F2FF" d="M387.1,98.8c0-21,11-32.9,31.3-32.9c20.2,0,31.2,12,31.2,32.9v68.1c0,21-11,32.9-31.2,32.9
		c-20.2,0-31.3-12-31.3-32.9V98.8z M407.7,168.2c0,9.4,4.1,12.9,10.7,12.9c6.5,0,10.7-3.6,10.7-12.9V97.5c0-9.4-4.1-12.9-10.7-12.9
		c-6.6,0-10.7,3.6-10.7,12.9V168.2z"/>
	<g>
		<path fill="none" stroke="#FFFFFF" stroke-width="2.3203" stroke-miterlimit="10" stroke-dasharray="11.435,5.7175" d="
			M387.1,98.8c0-21,11-32.9,31.3-32.9c20.2,0,31.2,12,31.2,32.9v68.1c0,21-11,32.9-31.2,32.9c-20.2,0-31.3-12-31.3-32.9V98.8z"/>
		<path fill="none" stroke="#FFFFFF" stroke-width="2.3203" stroke-miterlimit="10" stroke-dasharray="11.1902,5.5951" d="
			M407.7,168.2c0,9.4,4.1,12.9,10.7,12.9c6.5,0,10.7-3.6,10.7-12.9V97.5c0-9.4-4.1-12.9-10.7-12.9c-6.6,0-10.7,3.6-10.7,12.9V168.2z
			"/>
	</g>
</g>
<g>
	<g>
		<g>
			<polyline fill="none" stroke="#FFFFFF" stroke-width="2.3203" stroke-miterlimit="10" points="471.3,169.4 465.5,169.4 
				465.2,163.6 			"/>
			
				<polyline fill="none" stroke="#FFFFFF" stroke-width="2.3203" stroke-miterlimit="10" stroke-dasharray="11.3086,5.6543" points="
				464.9,157.9 462.9,122 462.9,76 			"/>
			<polyline fill="none" stroke="#FFFFFF" stroke-width="2.3203" stroke-miterlimit="10" points="462.9,73.2 462.9,67.4 468.7,67.4 
							"/>
			<polyline fill="none" stroke="#FFFFFF" stroke-width="2.3203" stroke-miterlimit="10" points="477.7,67.4 483.5,67.4 483.5,73.2 
							"/>
			
				<polyline fill="none" stroke="#FFFFFF" stroke-width="2.3203" stroke-miterlimit="10" stroke-dasharray="11.3085,5.6543" points="
				483.5,78.8 483.5,122 481.3,160.7 			"/>
			<polyline fill="none" stroke="#FFFFFF" stroke-width="2.3203" stroke-miterlimit="10" points="481.2,163.6 480.8,169.4 
				475,169.4 			"/>
		</g>
		<g>
			<polyline fill="none" stroke="#FFFFFF" stroke-width="2.3203" stroke-miterlimit="10" points="477.3,178.5 483.1,178.5 
				483.1,184.3 			"/>
			<polyline fill="none" stroke="#FFFFFF" stroke-width="2.3203" stroke-miterlimit="10" points="483.1,192.6 483.1,198.4 
				477.3,198.4 			"/>
			<polyline fill="none" stroke="#FFFFFF" stroke-width="2.3203" stroke-miterlimit="10" points="469.1,198.4 463.3,198.4 
				463.3,192.6 			"/>
			<polyline fill="none" stroke="#FFFFFF" stroke-width="2.3203" stroke-miterlimit="10" points="463.3,184.3 463.3,178.5 
				469.1,178.5 			"/>
		</g>
	</g>
</g>
<path fill="none" stroke="#FFFFFF" stroke-width="2.3203" stroke-miterlimit="10" stroke-dasharray="11.6015,5.8007" d="
	M133.8,198.4h-20.6v-131h20.6v56.1h23.4V67.4h21v131h-21v-56.1h-23.4V198.4z"/>
<g>
	<g>
		<path fill="#FFFFFF" d="M111.8,71.5c0.4,3.9,1.6,7.7,2.4,11.5c1.2,6.1,1.9,12.5,2.1,18.8c0.4,11.8-1.9,23.5-2.2,35.2
			c-0.3,10.4-0.6,20.9,0.5,31.2c0.6,5.6-0.6,11.4-1.3,17c-0.7,5.4-0.8,10.8-0.9,16.2c0,0.6,0.9,0.6,0.9,0
			c0.1-10.5,2.2-20.9,2.2-31.4c0-5.4-0.9-10.7-0.8-16.1c0.1-5.6,0.1-11.3,0.2-16.9c0.2-11.1,2.1-22.1,2.2-33.3
			c0.1-5.2-0.6-10.3-1.3-15.4c-0.8-5.7-2.6-11.2-3.2-16.8C112.6,70.9,111.8,70.9,111.8,71.5L111.8,71.5z"/>
	</g>
</g>
<g>
	<g>
		<path fill="#FFFFFF" d="M114.8,199c-1.6-0.3-1.1-0.3-2.8-0.2c-0.6,0-0.6,0.9,0,0.9c3.3,0,6.7,0,10,0c4,0,0.9-0.5,2.4-0.7
			c-1.5,0.2-3,0.4-4.5,0.7c-0.5,0.1-0.4,0.9,0.1,0.9c3.2-0.2,6.4-0.7,9.6-1.1c0.5-0.1,0.6-0.9,0-0.9c-1.9,0-3.8,0-5.7,0
			c-1.5-0.6-2.1-0.4-2,0.8c1.2-0.1,2.4-0.2,3.7-0.3c4.3-0.3,8.6-0.8,12.9-0.8c0.6,0,0.6-0.9,0-0.9c-3.7,0-7.4,0-11.1,0
			c-0.6,0-0.6,0.9,0,0.9c1.9,0,3.7,0,5.6,0c1.2,0,2.5,0,3.7,0c0.3-1.2-0.3-1.5-1.8-0.8c-4.9,0.2-9.8,0.9-14.7,1.1
			c-0.6,0-0.6,0.9,0,0.9c1.3,0,2.5,0,3.8,0c0.6,0,1.3,0,1.9,0c1.5,0.6,2.1,0.4,1.9-0.6c-1.9,0.2-3.8,0.5-5.8,0.7
			c-0.1,0.2-0.2,0.5-0.3,0.7c1.5-0.3,2.9-0.5,4.4-0.6c0.5-0.1,0.6-0.9,0-0.9c-2,0-4,0-6,0c-1.3,0-2.7,0-4,0
			c-2.1-0.6-2.5-0.2-1.4,1.1C115.1,199.9,115.4,199.1,114.8,199L114.8,199z"/>
	</g>
</g>
<g>
	<g>
		<path fill="#FFFFFF" d="M132.9,194.9c0.8-2.1,0.5-4.3,0.5-6.5c0-3.6,0-7.1,0-10.7c-0.2-7.5-0.8-15-0.8-22.5c0-0.6-0.9-0.6-0.9,0
			c0,5.7,0,11.5,0,17.2c0,3.2,0,6.4,0,9.6c0,1.3,0,2.5,0,3.8c0.3,0.1,0.6,0.2,0.8,0.2c0.1-1.7,0.2-3.3,0.6-5
			c1.7-11,3.5-21.7,3.5-32.9c0-0.6-0.9-0.6-0.9,0c0,6.9-0.6,13.8-1.4,20.7c-0.7,6.3-2.7,12.4-2.6,18.8c0,0.6,0.9,0.6,0.9,0
			c0-5.7,0-11.5,0-17.2c0-3.2,0-6.4,0-9.6c0-1.3,0-2.5,0-3.8c-0.3,0-0.6,0-0.9,0c0,1.3,0,2.5,0.1,3.8c0.1,5.6,0.6,11.2,0.8,16.8
			c0.1,3,0.1,5.9,0.1,8.9c0,2.5,0.5,5.7-0.4,8.1C131.8,195.2,132.7,195.4,132.9,194.9L132.9,194.9z"/>
	</g>
</g>
<g>
	<g>
		<path fill="#FFFFFF" d="M154.6,121.4c3.5-0.5,4.7-3.3,4.1-6.6c-0.4-2.4-1.3-4.2-2.7-6.2c-3.2-4.4,0-10.9,2.9-14.4
			c0.2-0.2,0.2-0.4,0-0.6c-7.5-9.2-3.4-21.9-0.4-31.8c0.2-0.5-0.7-0.8-0.8-0.2c-2,6.7-4.1,12.1-3.7,19.1c0.2,2.4,0.5,4.8,1,7.2
			c0.3,1.3,3.2,5.7,2.4,6.8c-3,3.5-3.4,7-3.2,11.5c0.1,1.6,0.9,2.7,1.8,3.9c1.8,2.4,4,9.7-1.4,10.4
			C154.1,120.6,154.1,121.4,154.6,121.4L154.6,121.4z"/>
	</g>
</g>
<g>
	<g>
		<path fill="#FFFFFF" d="M191.3,67.7c2.5,5.6,1.4,11.5,2.1,17.4c0.7,6,4.4,10,2.6,16.5c-1.4,5.1-3.6,9.6-4.4,15
			c-0.7,5.1-0.5,10.4,0,15.6c1.1,11.1,4.6,21.7,4.6,33c0,6.2-1.6,12.4-2.3,18.6c-0.6,5.8,0.5,11.8-1.9,17.2c-0.2,0.5,0.5,1,0.8,0.4
			c1.6-3.7,1.7-7.6,1.8-11.6c0.1-6.5,1.4-12.8,2.1-19.2c1.4-12-1.8-23.3-3.7-35.1c-1.1-6.7-1.2-13.6-0.2-20.3
			c0.8-5.8,4.8-11.2,4.9-16.9c0.1-5.5-3.2-10.3-3.7-15.9c-0.4-5.3,0.3-10.2-2-15.1C191.8,66.7,191.1,67.2,191.3,67.7L191.3,67.7z"/>
	</g>
</g>
<g>
	<g>
		<path fill="#FFFFFF" d="M190.4,69.2c2.6,0.7,6.3,0.3,5.7-3.1c-0.3-2.1-3.8-2.6-3.2-0.4c0.5,2,4.6,2.1,6.2,2.3
			c1.2,0.1,2.2,0.1,3.1-0.7c2-1.9-2.6-3.4,2-2.7c0.5,0.1,0.8-0.8,0.2-0.8c-1.1-0.2-2.1-0.4-3.1-0.3c-0.3,0-0.5,0.3-0.4,0.6
			c1.5,3.9-1.8,3.2-3.9,2.9c-0.9-0.2-1.8-0.4-2.6-0.8c-0.1-0.1-0.2-0.1-0.3-0.2c0.6,2,0.2,2.9-1.4,2.7c-0.7,0-1.4-0.1-2.1-0.3
			C190.1,68.2,189.9,69,190.4,69.2L190.4,69.2z"/>
	</g>
</g>
<g>
	<g>
		<path fill="#FFFFFF" d="M192.9,67.6c7.8,0.1,15.5,0.6,23.3,0.5c0.6,0,0.6-0.9,0-0.9c-7.8,0.1-15.5-0.4-23.3-0.5
			C192.3,66.7,192.3,67.6,192.9,67.6L192.9,67.6z"/>
	</g>
</g>
<g>
	<g>
		<path fill="#FFFFFF" d="M213.5,68.4c7.2-0.1,14.4-0.3,21.7-0.3c0.6,0,0.6-0.9,0-0.9c-4.3,0-8.5-0.6-12.8-0.8c0,0.3,0,0.6,0,0.9
			c1.3,0,2.5,0,3.8,0c2.5,0,5,0,7.5,0c1.9,0,3.8,0,5.7,0c1.3,0,2.5,0,3.8,0c1.5,0.6,2.1,0.3,2-0.9c-4.1,0-8.3,0-12.4,0
			c-0.6,0-0.6,0.9,0,0.9c7.5,0,15-0.2,22.5,0.6c0.6,0.1,0.6-0.8,0-0.9c-5.7-0.6-11.4-0.6-17.2-0.6c-1.2,0-2.4,0-3.6,0
			c0,0.3,0,0.6,0,0.9c1.2,0,2.4,0,3.5,0c3,0,5.9,0,8.9,0c0.6,0,0.6-0.9,0-0.9c-8.8,0-17.6,0-26.4,0c-0.6,0-0.6,0.9,0,0.9
			c3.1,0,6.2,0.4,9.4,0.7c1.2,0.1,2.4,0.1,3.5,0.1c0-0.3,0-0.6-0.1-0.9c-1.2,0-2.5,0-3.7,0c-5.4,0-10.7,0.2-16.1,0.3
			C212.9,67.5,212.9,68.4,213.5,68.4L213.5,68.4z"/>
	</g>
</g>
<g>
	<g>
		<path fill="#FFFFFF" d="M249.1,65.4c0,3.9-0.5,7.7,0.7,11.4c0.2,0.5,1,0.3,0.8-0.2c-1.1-3.7-0.7-7.4-0.7-11.2
			C249.9,64.9,249.1,64.9,249.1,65.4L249.1,65.4z"/>
	</g>
</g>
<g>
	<g>
		<path fill="#FFFFFF" d="M250.2,72.8c-0.6,2.2-1.4,4-1.4,6.3c0,2.5,0,4.9-0.1,7.3c0,0.6,0.8,0.6,0.9,0c0.1-2.1,0.2-4.2,0.1-6.3
			c-0.1-2.6,0.6-4.6,1.3-7C251.2,72.5,250.4,72.3,250.2,72.8L250.2,72.8z"/>
	</g>
</g>
<g>
	<g>
		<path fill="#FFFFFF" d="M249.2,85.6c-2.6-0.2-5.2-0.3-7.8,0.1c-0.5,0.1-0.6,0.8,0,0.9c1.4,0.1,2.8,0.1,4.2,0c0.6,0,0.6-0.9,0-0.9
			c-3.2,0-6.4-0.1-9.7,0.3c-0.5,0.1-0.4,0.9,0.1,0.9c1.2,0,1.1,0,2.3-0.2c0.5-0.1,0.4-0.9-0.1-0.9c-2.1,0.1-4.2,0.2-6.4,0.3
			c-1,0-2.1,0-3.1,0c-0.1,0.3-0.3,0.5-0.4,0.8c0.4-0.1,0.8-0.1,1.2-0.2c0.5-0.1,0.3-0.8-0.1-0.9c-3.3-0.2-6.6-0.1-9.9-0.1
			c-0.2,0.3-0.3,0.6-0.5,0.8c1.5,0.3,1.8,0.1,0.7-0.5c-3,0.5-6.1,0.8-9.1,1.2c-0.5,0.1-0.6,0.9,0,0.9c1.2-0.1,1.1-0.1,2.3-0.3
			c0.6-0.1,0.3-0.9-0.2-0.8c-0.1,0.3-0.1,0.6-0.2,0.9c1.2-0.1,2.5-0.3,3.7-0.5c1.9-0.2,3.8-0.5,5.6-0.8c0.5-0.1,0.4-0.8-0.1-0.9
			c-1.4-0.1-2.7,0-4,0c-0.6,0-0.6,0.9,0,0.9c1.8,0,3.6,0,5.4,0.1c1.1,0,2.2,0,3.3,0c1.7,0.3,2,0.1,0.8-0.6c-0.6,0-0.6,0.9,0,0.9
			c4.6,0,9.1-0.3,13.7-0.4c1.1,0,2.1,0,3.2,0c0.5-1,0.1-1.3-1.2-0.8c0.2,0.9,0.9,1.1,2,0.6c1.5,0,2.9,0,4.4,0.1
			C249.8,86.5,249.8,85.6,249.2,85.6L249.2,85.6z"/>
	</g>
</g>
<g>
	<g>
		<path fill="#FFFFFF" d="M211.6,85.8c-0.3,1.2-1.3,5.4,0.2,6.2c1,0.5,0.9,0.5,1.8,0c1.5-0.8,0.5-2.8,0.5-1.4
			c-0.1,2.8-0.7,5.3-0.1,8.1c0.9,3.9,3.5,5.7,1.5,10.4c-2.2,5.1-2.6,10.8-2.6,16.2c0,0.6,0.9,0.6,0.9,0c0-3.8,0.3-7.5,1.1-11.2
			c0.6-3,2.3-5.6,3-8.6c0.3-1.3-1.2-3.2-1.7-4.2c-2.3-4.3-1.2-7.9-1.2-12.3c0-0.5-0.7-0.6-0.9-0.1c-1.5,4.3-2.1-1.3-1.7-2.9
			C212.5,85.5,211.7,85.3,211.6,85.8L211.6,85.8z"/>
	</g>
</g>
<g>
	<g>
		<path fill="#FFFFFF" d="M211.6,120.3c2.8,1.4,6.6,0.6,9.6,0.6c5.9,0,11.9,0,17.8,0c0.6,0,0.6-0.9,0-0.9c-4.6,0-9.2,0-13.8,0
			c-3.7,0-9.7,1.2-13.2-0.5C211.5,119.3,211.1,120.1,211.6,120.3L211.6,120.3z"/>
	</g>
</g>
<g>
	<g>
		<path fill="#FFFFFF" d="M211,122.4c3.4-2.7,11.8-1.8,15.9-1.8c6.5,0,12.2-0.1,18.5,1.5c0.5,0.1,0.8-0.7,0.2-0.8
			c-7-1.8-13.3-1.6-20.6-1.5c-4,0-11.2-0.7-14.6,2C209.9,122.1,210.5,122.7,211,122.4L211,122.4z"/>
	</g>
</g>
<g>
	<g>
		<path fill="#FFFFFF" d="M244.3,123.5c-1.1,2.6-1.1,5.1-1.1,7.9c0.1,4-0.4,7.9,0.3,11.9c0.1,0.6,0.9,0.3,0.8-0.2
			c-0.5-3.2-0.2-6.3-0.2-9.5c0.1-3.3-0.5-6.5,0.9-9.6C245.3,123.5,244.5,123,244.3,123.5L244.3,123.5z"/>
	</g>
</g>
<g>
	<g>
		<path fill="#FFFFFF" d="M244,141.8c-3.3-2.6-8.3-1.6-12.2-1.9c-3.5-0.2-7.1-0.4-10.6-0.5c-1.7,0-4.1,0.9-6,0.9c-1,0-3.8,0.9-1,0.9
			c0.6,0,0.6-0.9,0-0.9c-0.8,0-1.6,0-2.4,0c-0.6,0-0.6,0.9,0,0.9c3.5,0,6.9,0,10.3-0.7c0.4-0.1,0.4-0.8,0-0.8
			c-1.6-0.3-1.1-0.3-2.7-0.3c-0.6,0-0.6,0.9,0,0.9c4.2,0,8.3,0.3,12.4,0.5c3.5,0.2,8.7-0.6,11.6,1.6
			C243.8,142.7,244.5,142.1,244,141.8L244,141.8z"/>
	</g>
</g>
<g>
	<g>
		<path fill="#FFFFFF" d="M214.6,140.9c0.7,6.8-0.7,13.5,0.5,20.2c0.1,0.5,0.9,0.4,0.9-0.1c-0.4-4-2.1-7.7-2.8-11.6
			c-0.1-0.5-0.9-0.4-0.9,0.1c0.1,5.6,0.2,11.2,0,16.8c-0.2,4.5-1.5,8.9-0.7,13.4c0.1,0.6,0.9,0.3,0.8-0.2c-0.8-4.2,0.5-8.9,0.7-13.2
			c0.3-5,0.1-10,0-14.9c-1-0.3-1,0.2-0.1,1.5c0.3,1.1,0.7,2.2,1,3.2c1.3,4,1.3-0.1,1.3-1.7c0-4.5,0.6-9,0.1-13.5
			C215.4,140.4,214.5,140.4,214.6,140.9L214.6,140.9z"/>
	</g>
</g>
<g>
	<g>
		<path fill="#FFFFFF" d="M212.3,181c5.4-1.3,10.9-1.4,16.5-1.8c5.9-0.4,11.8-1.5,17.8-1.8c0.6,0,0.6-0.9,0-0.9
			c-6,0.4-11.8,1.3-17.8,1.8c-5.6,0.5-11.2,0.5-16.7,1.8C211.5,180.3,211.7,181.2,212.3,181L212.3,181z"/>
	</g>
</g>
<g>
	<g>
		<path fill="#FFFFFF" d="M216.5,180.5c11.1,0,22.3,0,33.4,0c0.6,0,0.6-0.9,0-0.9c-11.1,0-22.3,0-33.4,0
			C215.9,179.6,215.9,180.5,216.5,180.5L216.5,180.5z"/>
	</g>
</g>
<g>
	<g>
		<path fill="#FFFFFF" d="M220.2,179.5c4.5-0.7,9.1-0.2,13.6-0.2c4.3,0,8.6,0,12.9,0c0.6,0,0.6-0.9,0-0.9c-8.7,0-18.2-1.2-26.8,0.2
			C219.4,178.8,219.7,179.6,220.2,179.5L220.2,179.5z"/>
	</g>
</g>
<g>
	<g>
		<path fill="#FFFFFF" d="M246.9,179.7c3.2,5.7,3.4,12,3,18.3c0,0.6,0.8,0.6,0.9,0c0.4-6.5,0.2-12.9-3.1-18.7
			C247.4,178.8,246.7,179.2,246.9,179.7L246.9,179.7z"/>
	</g>
</g>
<g>
	<g>
		<path fill="#FFFFFF" d="M250.1,198.5c-9.7-1.8-20,1.5-29.8,1.5c-0.6,0-0.6,0.9,0,0.9c9.7,0,19.9-3.4,29.6-1.5
			C250.4,199.5,250.6,198.6,250.1,198.5L250.1,198.5z"/>
	</g>
</g>
<g>
	<g>
		<path fill="#FFFFFF" d="M231.4,199.1c-8.9-0.7-17.9-0.8-26.8-0.4c-3.9,0.2-7.7,0.5-11.5,0.6c-3.1,0-6-0.9-9-0.4
			c-0.6,0.1-0.3,0.9,0.2,0.8c3-0.5,7.2,0.5,10.3,0.4c4-0.1,7.9-0.5,11.9-0.7c8.3-0.4,16.6-0.2,24.9,0.5
			C232,200,232,199.1,231.4,199.1L231.4,199.1z"/>
	</g>
</g>
<g>
	<g>
		<path fill="#FFFFFF" d="M262.2,67.4c3.7-0.1,7.4-0.5,11.2-0.4c2.1,0,6.9,0.2,0.7,0.6c-2.6,0.2-5.2-0.1-7.8-0.2
			c0.1,1.1,0.8,1.4,2.1,0.8c1.2,0,2.4-0.1,3.6-0.1c2.4-0.1,4.8,0,7.2,0.2c0.1-1.1-0.5-1.3-1.9-0.7c-1.2,0-2.5,0-3.7,0
			c-3.1,0-6.2,0-9.2,0c-0.6,0-0.6,0.9,0,0.9c3.5,0,7,0,10.4,0c1.6,0,3.1-0.2,4.7-0.2c0.6,0,5.7-0.1,2,0.2c-6.4,0.4-13-0.4-19.5-0.4
			c-0.6,0-0.6,0.9,0,0.9c7.6,0,16.2,1.4,23.6-0.2c0.4-0.1,0.4-0.8,0-0.8c-5.2-1.1-10.7-0.2-16-0.2c-1.2,0-2.4,0-3.6,0
			c0,0.3,0,0.6,0.1,0.9c1.2,0,2.5,0,3.7,0c3.7,0,7.4,0,11.1,0c0.6,0,0.5-0.8,0-0.9c-5.4-0.6-10.8-0.3-16.2-0.2c-0.6,0-0.6,0.9,0,0.9
			c4.7,0.1,9.3,0.7,13.9-0.4c0.4-0.1,0.4-0.7,0-0.8c-5.3-1.6-10.9-0.5-16.4-0.4C261.6,66.5,261.6,67.4,262.2,67.4L262.2,67.4z"/>
	</g>
</g>
<g>
	<g>
		<path fill="#FFFFFF" d="M314.5,180.4c1.3,6.5,0.7,13,0.6,19.5c0,0.6,0.9,0.6,0.9,0c0.1-5.2,0.6-10.3-1-15.4
			c-0.1-0.4-0.7-0.4-0.8,0c-0.6,3.1-0.4,6.2-0.3,9.4c0,0.6,0.9,0.6,0.9,0c0.1-6,0.4-11.9-0.6-17.9c-0.1-0.5-0.8-0.3-0.9,0.1
			c-0.7,6.3-0.4,12.6-0.3,19c0,0.6,0.9,0.6,0.9,0c0.1-5.2-0.6-10.3-1.8-15.4c-0.1-0.5-0.8-0.4-0.9,0.1c-0.3,4.6-0.4,9.2-0.4,13.9
			c0,0.6,0.9,0.6,0.9,0c0-4.2,0-8.5,0-12.7c-0.3,0-0.6,0-0.9,0c0,1.2,0.1,2.4,0.2,3.6c0.2,2.4,0.4,4.9,0.6,7.3
			c0.2,1.8,0.3,3.7,0.4,5.5c-0.1-2,0.4-4.6,0.5-6.7c0.2-3.5,0.4-6.9-0.4-10.3c-0.1-0.4-0.8-0.4-0.8,0c-0.7,3.9-0.3,7.8-0.2,11.7
			c0,0.6,0.9,0.6,0.9,0c0-3.5,0-6.9,0-10.4c-0.3,0-0.6,0.1-0.9,0.1c0,1.2,0,2.4,0,3.7c0,2.4-0.1,4.9-0.2,7.3
			c-0.1,1.8,0.4,3.2-0.3,0.7c-0.6-2-0.7-4.1-0.9-6.2c-0.3-3.2-0.5-6.4-1.1-9.6c-0.1-0.5-0.8-0.3-0.9,0.1c-0.7,5.6-0.3,11.3-1.2,16.9
			c-0.7,4.3-0.1-0.9-0.1-1.9c0-2.9,0.1-5.9,0-8.8c0-0.5-0.8-0.6-0.9-0.1c-0.6,2.9-1,5.9-1.3,8.8c-0.1,0.4-0.3,5-0.3,5.1
			c-0.1-1.9-0.1-3.8-0.1-5.7c0-1.9,0-3.8,0.1-5.7c0-2.3-0.8-3-0.8-0.2c0,0.6,0,1.2,0,1.8c-0.6,1.4-0.3,2,0.9,2
			c0-2.2,0.3-4.4,0.8-6.6c-0.3,1.3-1.3,6.1-2,8.6c-0.4,1.5-0.9,3-1.4,4.5c-1.2,3.6-0.5-1.5-0.5-2.3c-0.2-3.5,0.2-7,0.3-10.5
			c-0.3,0.1-0.6,0.2-0.8,0.3c0,1.3,0,2.7,0,4c0,2,0,4,0,6c0,0.6,0.9,0.6,0.9,0c0.1-4.7,0.7-9.3,0.6-14c0-0.6-0.9-0.6-0.9,0
			c0,4.4-0.3,8.8-0.1,13.2c-0.2-4.6,0.1-9.1,0-13.7c0-0.5-0.7-0.6-0.9-0.1c-0.8,2.8-1.3,5.6-1.7,8.4c-0.2,1.1-0.3,2.3-0.5,3.4
			c-0.6,4.2-0.2-0.4-0.3-1.1c0-1.1,0-2.1,0.1-3.2c0-0.5,0.1-1.1,0.1-1.6c0.6-1.5,0.3-1.9-0.8-1.3c0,2.4-0.3,4.8-0.6,7.1
			c-0.1,0.8-0.2,6-0.6,2c-0.3-2.9,0-6,0.1-8.9c0.6-1.5,0.4-2.1-0.8-1.7c0,1.8-0.1,3.5-0.2,5.3c-0.1,1.2-0.2,2.3-0.3,3.5
			c0,0.6-0.1,1.2-0.1,1.7c-0.7,1.6-0.5,2.1,0.6,1.6c0-3.9-0.1-7.8,0-11.7c0-0.6-0.8-0.5-0.9,0c-0.5,5-0.9,9.9-1.9,14.8
			c0.5-2.3-0.1-5.1-0.1-7.4c0-3.1-0.1-6.1-0.4-9.2c0-0.4-0.8-0.6-0.9-0.1c-0.7,5.1-0.3,10.1-0.3,15.2c0,0.6,0.9,0.6,0.9,0
			c0-5.7,0-11.5,0-17.2c0-0.6-0.9-0.6-0.9,0c0,2.5-0.1,4.9-0.2,7.4c0,1.2-0.1,2.5-0.1,3.7c0,0.9,0.7,6.2,0.2,2
			c-0.6-4.9,0-9.7-1.3-14.5c-0.1-0.5-0.8-0.3-0.9,0.1c-1,7.9-1.9,15.7-1.8,23.7c0,0.6,0.9,0.6,0.9,0c0-2.4,0-4.8,0-7.2
			c0-1.2,0-2.4,0-3.6c0.6-1.5,0.3-2.1-0.9-1.8c0,1.3,0.7,6.5,0.9,2.2c0.2-3.3,0.9-6.6,1.7-9.8c-0.3,1.3-0.6,3.7-0.7,5.5
			c-0.1,1.2-0.2,2.4-0.4,3.6c-0.1,1.2-0.2,8.3-0.5,3.6c-0.3-4.8,0.5-9.5-0.2-14.3c-0.1-0.4-0.8-0.4-0.8,0c-0.7,5-1.5,10-2.2,15
			c-0.6,4.4,0.1,0.4,0-1.4c-0.1-2.4,0-4.7,0.1-7.1c0.2-4.6-0.2,2.3-0.2,3.1c0,2.2-0.2,4.5-0.4,6.7c0.4-3.9,0.2-8.1,0.4-12.1
			c-1.1,0-1.4,0.6-0.9,1.8c-0.1,1.7-0.4,3.3-0.7,4.9c-0.4,2.2-1.1,4.4-1.8,6.6c-1.5,4.7,0-2.6,0-2.9c0.3-2.2,1-4.3,1.7-6.4
			c0.5-1.6,2.2-8.2,0.9-1.1c-0.4,2.3-1.2,4.4-2,6.6c-0.6,1-0.8,2.2-0.6,3.4c0.5-1.6,1.2-3.1,2-4.5c1.3-2.6,2.8-5,4.2-7.5
			c-1,0.5-1.6,1.3-1.9,2.4c-0.5,0.9-1.1,1.9-1.7,2.8c-1.2,1.8-2.4,3.6-3.5,5.5c1.8-3,2.3-7.9,3.5-11.3c0.6-1.6,1.1-4.6-0.1-1
			c-1,3.1-3.2,6-5.3,8.5c-0.4-0.8-0.4-1.5-0.1-2.3c0.3-1.2,0.7-2.3,1.3-3.4c0.8-2,1.9-3.8,3-5.6c1.3-2.1,1.2-1.7,1.1,0.5
			c-0.1,2.1-0.9,4.1-1.6,6c-0.8,2.1-1.9,4.1-3,6c-0.4,0.7-0.9,1.4-1.4,2.1c-1.5,1.8-1.8,2.2-0.9,1.3c0.6-2.7,2-5.2,3.3-7.6
			c0.5-0.9,2.1-5.2,1.1-2c-1.3,4.5-4.9,8.5-7.4,12.3c-0.3,0.4,0.4,0.9,0.7,0.5c3.6-4.5,7.3-9,10.2-14c0.3-0.4-0.3-0.9-0.7-0.5
			c-2.5,2.4-5,4.7-7.6,6.9c0.8-0.7,2.4-3.8,3-4.5c1.3-1.5,2.7-2.9,3.9-4.5c0.3-0.4-0.2-1-0.6-0.6c-2.7,2.7-5.4,5.5-8.3,8
			c-3.2,2.8-7,4.6-10.1,7.4c-0.3,0.3,0,0.8,0.4,0.7c3.7-1.1,6.2-5.1,8.9-7.6c0.9-0.8,1.8-1.6,2.7-2.4c0.6-0.5,5.5-5.4,3.9-2.2
			c-1.3,2.6-3.9,4.7-5.7,7c-0.3,0.4,0.2,1,0.6,0.6c1.2-1.1,2.4-2.3,3.5-3.4c0.4-0.4,3.7-4.7,1.6-1.6c-1.9,2.8-3.9,5.5-6,8
			c-0.9,1.1-1.9,2-2.9,3c-2.4,2.2,1.3-1.9,1.8-2.5c2.2-2.4,4.9-4.4,7.1-6.8c0.3-0.3,0-0.9-0.4-0.7c-2.5,0.9-4.6,2.2-6.8,3.6
			c-1.3,0.9-2.6,1.7-4,2.5c-1.2,0.7,2.3-5.1,2.3-5.2c3.7-4.2,8.8-6.9,12.5-11.2c0.3-0.4-0.1-1-0.5-0.7c-4.9,3.3-8.7,8-13.5,11.5
			c-3.1,2.3,0.6-0.9,0.9-1.3c1.4-1.4,3-2.5,4.6-3.6c2.5-1.8,5-3.5,7.2-5.7c0.4-0.4-0.1-0.9-0.5-0.7c-7.8,4.4-13.8,11.5-22.3,14.8
			c1.2-0.5,3-2.5,4.5-3.4c2.5-1.6,5.2-2.7,7.9-3.7c3.7-1.5,7.4-2.9,10.9-5c0.4-0.2,0.1-1-0.3-0.8c-4.5,1.6-9.4,2.3-13.7,4.3
			c1.8-0.8,3.4-2.6,5.4-3.5c1.8-0.8,3.6-1.4,5.3-2.3c0.3-0.2,0.3-0.7-0.1-0.8c-5.2-0.8-10.6,2.8-15,5c-0.5,0.3-0.1,1,0.4,0.8
			c4.8-2.1,9.9-3.4,14.9-4.8c0.6-0.2,0.3-0.9-0.2-0.8c-2.2,0.3-4.2,0.9-6.3,1.6c-1,0.4-2.1,0.7-3.1,1.1c-0.5,0.2-1.1,0.3-1.6,0.5
			c-1.5-0.1-2,0.2-1.3,0.9c5-2,10.4-2.8,15.6-3.9c0.5-0.1,0.4-0.8-0.1-0.9c-6-0.4-11.8,0.8-17.7,1.9c-0.6,0.1-1.2,0.2-1.7,0.3
			c-1.5-0.3-2-0.1-1.5,0.7c1.6-0.6,3.3-0.9,5-1.3c3.9-0.8,8-0.8,12-1.1c0.6,0,0.6-0.9,0-0.9c-2.1,0.1-4.3,0.2-6.4,0.3
			c-2.8,0.1-6.9-0.6-2-2c3.5-1,7.2-0.7,10.8-1.2c0.6-0.1,0.6-0.8,0-0.9c-2.7-0.4-5.3-0.3-8,0.1c0.1,0.3,0.2,0.5,0.3,0.8
			c1.6-0.3,3.1-0.4,4.7-0.5c1.6-0.1,3.2-0.2,4.8-0.4c0.5-0.1,0.6-0.9,0-0.9c-3.5,0-7.1,0-10.6,0c-1.7,0-3.3,0-5,0
			c-2.3,0.1-6.5,0.3-2.6-2.3c4.3-2.8,9.7-2.8,13.8-6c0.2-0.1,0.2-0.5,0-0.6c-1.7-1.4-3.6-2.7-5.3-4.1c-0.4-0.3-1.1,0.3-0.6,0.6
			c0.7,0.5,5.3,3.6,3.5,4.8c-2.1,1.3-4.7,1.9-7,2.6c-2.9,0.9-5.6,2.1-7.6,4.4c-0.2,0.2-0.2,0.6,0.1,0.7c4.1,1.9,9.9,0.7,14.3,0.7
			c1.2,0,2.4,0,3.5,0c1.8,0,3.2-0.8,0.3-0.6c-2.8,0.2-5.4,0.4-8.1,1c-0.5,0.1-0.3,0.9,0.2,0.8c2.7-0.5,5.9-0.9,8.5-1.2
			c-2.2,0.3-4.4,0.3-6.6,0.5c-2.8,0.3-5.9,0.8-7.9,3c-0.2,0.2-0.1,0.6,0.2,0.7c2.1,0.5,4.2,0.7,6.4,0.6c1.1,0,2.2-0.1,3.3-0.2
			c2.7-0.2,1.5-0.9-0.4-0.7c-5.3,0.4-10.4,0.8-15.4,2.8c-0.5,0.2-0.3,0.9,0.2,0.8c6.4-0.9,12.7-2.5,19.1-2.8c1.5,0.5,2,0.4,1.6-0.4
			c-1.7,0.4-3.5,0.7-5.2,1.1c-3.5,0.8-6.9,1.7-10.3,3.1c-0.5,0.2-0.3,0.9,0.2,0.8c2.7-0.5,5.3-1.4,7.9-2.4c1-0.4,2.1-0.7,3.1-1
			c2.6-0.8,1.4-1-0.4-0.5c-2.8,0.8-5.6,1.6-8.4,2.5c-0.6,0.2-1.2,0.4-1.7,0.7c-0.1,0.3-0.2,0.7-0.3,1c0.7-0.4,1.4-0.7,2.1-1.1
			c2.4-1.2,4.8-2.3,7.3-3.1c1-0.2,2-0.5,3-0.7c-1,0.5-2.2,0.9-3.3,1.3c-3,1.3-6,2.6-7.6,5.5c-0.2,0.4,0.2,0.8,0.6,0.6
			c3.8-1.8,7.9-2.7,11.9-3.8c1.8-0.5,2.1-1.5,0-0.4c-2.2,1.1-4.5,2-6.7,2.9c-5.6,2.3-11.1,4.6-15.3,9.2c-0.3,0.3,0,0.9,0.4,0.7
			c7.4-2.4,12.8-7.6,18.9-12.2c0.8-0.6,1.6-1.2,2.5-1.7c1.3-0.2,1.6-0.6,1-1.2c-1.8,1.7-3.9,3.1-5.9,4.5c-3,2.1-5.7,4.3-7.8,7.3
			c-0.3,0.4,0.2,0.8,0.6,0.6c3.6-1.9,6.4-4.6,9.3-7.4c1.8-1.7,3.5-3.3,5.5-4.8c0.3-1.1,0.1-1.1-0.6-0.1c-0.8,0.8-1.7,1.5-2.5,2.2
			c-4.5,3.8-11.5,7.9-12,14.3c0,0.4,0.4,0.5,0.7,0.4c1.9-0.9,3.7-1.9,5.4-3.1c0.9-0.6,1.8-1.2,2.6-1.7c0.5-0.3,4.3-3.1,1.7-0.6
			c-3.1,3.1-6.5,5.5-8.4,9.5c-0.2,0.4,0.2,0.9,0.6,0.6c5.4-3.7,8.9-9.5,12.6-14.8c0.2-0.4-0.2-0.8-0.6-0.6c-1.4,1-2.6,2-3.8,3.2
			c-0.8,0.8-3.5,4.7-1,1.8c2.1-2.4,4.1-4.6,5-7.7c0.1-0.4-0.3-0.7-0.6-0.5c-4,2.7-7.5,5.9-11,9.2c-1.5,1.5-2.8,3.2-4.4,4.7
			c2.3-2.1,5.2-3.6,7.7-5.4c1.3-1,2.6-2.1,3.8-3.2c0.8-0.8,1.6-1.5,2.3-2.3c0.4-0.4,0.8-0.8,1.2-1.2c1.2-0.5,1.5-1.1,0.8-1.9
			c-2.6,3.2-5.7,5.6-6.9,9.7c-0.1,0.4,0.4,0.7,0.7,0.4c2.6-2.2,5.2-4.5,7.7-6.8c-2.3,2.2-5,6.5-7.3,9.5c-0.7,0.8-1.7,3.5,0,1
			c1.1-1.6,2.3-3.3,3.4-5c1.6-2.4,2.8-5,3.3-7.9c0.1-0.5-0.5-0.8-0.8-0.3c-2.6,4.3-5.2,8.5-6.2,13.5c-0.1,0.4,0.4,0.8,0.7,0.4
			c4.4-5.2,9.2-13.4,7.9-20.5c-0.1-0.4-0.6-0.4-0.8-0.1c-3.1,4.1-7.2,10.4-6.4,15.8c0.1,0.3,0.5,0.4,0.7,0.2
			c3.5-3.9,6.3-8.1,7.4-13.2c0.1-0.6-0.6-0.7-0.8-0.2c-2.3,5.5-4.5,11.1-5.1,17c0,0.4,0.6,0.6,0.8,0.2c2.6-4.7,6.1-8.9,7.9-14
			c0.2-0.5-0.6-0.8-0.8-0.3c-2.6,5.1-5.9,9.8-7.4,15.3c-0.1,0.5,0.6,0.8,0.8,0.3c2.3-5.3,4.3-10.7,4.6-16.5c0-0.4-0.6-0.6-0.8-0.2
			c-2.6,5.9-4.8,12.1-4.4,18.7c0,0.5,0.7,0.6,0.9,0.1c2.2-5.9,3.8-11.8,3.7-18.1c0-0.6-0.9-0.6-0.9,0c-0.1,5.1-0.9,10.2,0.2,15.2
			c0.1,0.5,0.8,0.3,0.9-0.1c0.6-5,0.9-10,0.1-15c-0.1-0.5-0.8-0.3-0.9,0.1c-0.3,5.3-0.4,10.5,0,15.8c0,0.5,0.8,0.6,0.9,0.1
			c0.8-5.6,1.7-11.3,2.5-16.9c-0.7,5-0.8,10.7,0,15.8c0.1,0.4,0.8,0.4,0.8,0c0.9-6,1.6-12,1.6-18.1c0-0.5-0.7-0.6-0.9-0.1
			c-1.2,4.9-2.2,9.8-2.2,14.9c0,0.6,0.9,0.6,0.9,0c0-2.4,0-4.8,0-7.3c0-0.6-0.9-0.6-0.9,0c0,4.2,0,8.4,0,12.6c0.3,0,0.6,0,0.8,0
			c0-1.2,0-2.4,0.1-3.6c0.1-2.5,0.3-4.9,0.5-7.4c0.2-1.8,0.4-3.7,0.6-5.5c0.3-2.2,0.1-7,0.8,0c0.4,4.2,0,8.4,0.9,12.7
			c0.1,0.5,0.8,0.4,0.9-0.1c0.1-4.9,0.3-9.8,0.4-14.7c-1.2-0.2-1.5,0.5-0.9,2c0,1.3,0,2.6,0,3.8c0,1.3,0,2.6,0,3.8
			c0,0.6,0,1.3,0,1.9c-0.6,1.4-0.3,2.1,0.9,2.2c0-2.3-0.1-4.5-0.2-6.8c0-0.9-0.4-7.7-0.2-3c0.3,5,0,9.9,0.7,14.8
			c0.1,0.4,0.7,0.4,0.8,0c0.9-3.9,1.4-7.7,1.8-11.7c0.1-1.1,0.2-2.2,0.3-3.3c-1.1,0.2-1.4,0.9-0.8,2.3c0,3.3,0,6.5,0,9.8
			c0,0.6,0.8,0.6,0.9,0c0.4-5.3,0.9-10.5,0.9-15.8c0-0.6-0.9-0.6-0.9,0c-0.1,5.3-0.6,10.6,0.2,15.9c0.1,0.4,0.7,0.4,0.8,0
			c1.1-4.8,1.7-9.5,1.7-14.3c0-0.6-0.9-0.6-0.9,0c-0.1,4.2-0.6,8.3,0.2,12.5c0.1,0.4,0.8,0.4,0.8,0c0.9-4.5,1.4-9.1,2.4-13.5
			c-0.9,4-0.5,9.5-0.3,13.9c0,0.5,0.8,0.6,0.9,0.1c0.4-2.5,0.7-5.1,0.8-7.6c0-1.3,0.1-2.5,0.1-3.8c0-2.1-0.8-3.2-0.9-0.3
			c-0.1,2.9-0.4,5.9-0.6,8.8c0.3-0.1,0.6-0.2,0.8-0.3c0-1.3,0-2.7,0-4c0-2,0-4,0-6c0-0.6-0.9-0.6-0.9,0c-0.1,5.8-0.7,11.7,0.2,17.5
			c0.1,0.5,0.7,0.4,0.8,0c1.7-5.8,4.1-11.6,3.8-17.7c0-0.5-0.7-0.6-0.9-0.1c-0.9,3.3-1.2,6.5-1.2,9.9c0,0.6,0.9,0.6,0.9,0
			c0-3,0-6,0-9c0-0.6-0.9-0.6-0.9,0c0,5.7-0.2,11.3,0.1,17c0,0.5,0.8,0.6,0.9,0.1c0.9-4.6,1.3-9.3,2-14c-0.5,3-0.7,8.2-0.4,12.2
			c0,0.5,0.7,0.6,0.9,0.1c1.8-6.1,1.3-12.5,1.8-18.8c-0.4,4.7,0.3,12,2.2,17.2c0.2,0.5,0.8,0.4,0.9-0.1c0.3-5.5,0.4-11,0.4-16.5
			c0-0.6-0.9-0.6-0.9,0c0,2.9,0,5.8,0,8.7c0,2,0.9,2.9,0.8,0.2c-0.1-1.7-0.1-3.4-0.1-5.1c-0.1,5.1-0.7,10.6,0.3,15.6
			c0.1,0.5,0.9,0.4,0.9-0.1c-0.2-6.7-1.2-13.3-1.3-20c0-0.6-0.9-0.6-0.9,0c0,4.2,0,8.5,0,12.7c1.1,0.4,1.4-0.1,0.9-1.6
			c0-1.2,0-2.3,0.1-3.5c0-1.8,0.1-4-0.2-5.4c0.6,2.5,1,5.1,1.2,7.6c0.1,1,0.2,2.1,0.2,3.1c-0.4,1.6-0.1,1.9,0.8,1.1
			c-0.1-5.1-0.2-10.1,0.1-15.2c-0.3,4.6,0.1,9.4,0,14.1c1.1,0.6,1.3,0.1,0.8-1.3c-0.1-1.1-0.1-2.1,0-3.2c0-4.5,0.6,3.7,0.7,4.5
			c0.1,2.1-0.1,4.2-0.1,6.2c1.1-0.1,1.4-0.8,0.9-2.1c0-1.2,0.1-2.4,0.1-3.6c0.1-4.2,0-8.4-0.8-12.6
			C315.2,179.7,314.4,179.9,314.5,180.4L314.5,180.4z"/>
	</g>
</g>
<g>
	<g>
		<path fill="#FFFFFF" d="M260.4,70.9c2.8-0.6,5.7-0.9,8.5-0.9c1.6,0,3.3,0.1,4.9,0.5c-0.2,1-0.9,1.4-1.9,1.4
			c-1.4,0.3-2.8,0.4-4.2,0.5c-4.2,0.3,2.3,0.3,2.2,0.3c1.1,0,2.3-0.1,3.4,0c1.6,0.5,2.1,0.3,1.4-0.5c-4.3,0.9-8.7,1.4-13.1,2.2
			c-0.5,0.1-0.4,0.9,0.1,0.9c3.5,0,7.1-0.4,10.6-0.5c5.3-0.1-3.1,0.9-2.5,0.8c-1.3,0.2-1.8,0.2-3.1,0.5c-0.6,0.1-0.3,0.9,0.2,0.8
			c2.3-0.4,4.5-0.8,6.7-1.3c1.3,0.3,1.9,0,1.7-0.9c-1,0.4-1.9,1-2.8,1.5c-0.3,0.2-0.3,0.7,0.1,0.8c1.8,0.4,3.3,0.5,5.2,0.4
			c-0.2-1-0.8-1.1-2.1-0.3c-1.2,0.2-2.4,0.4-3.7,0.5c-4.9,0.7-9.8,1.3-14.6,2.4c-0.5,0.1-0.4,0.9,0.1,0.9c4.5-0.6,9.1-1.1,13.6-1.4
			c2.6-0.2,5.2-0.2,7.8-0.1c5.8,0.1-3,0.5-3.2,0.5c-0.6,0-0.6,0.9,0,0.9c2.5-0.2,4.8-0.6,7.2-1.2c0.5-0.1,0.4-0.8-0.1-0.9
			c-7.9-0.6-15.6,0.1-23.4,1c0,0.2,0,0.5,0,0.7c1.2-0.2,2.4-0.5,3.6-0.7c1.8-0.3,3.7-0.6,5.5-0.8c3.7-0.5,7.3-1,11-1.6
			c0.5-0.1,0.4-0.9-0.1-0.9c-1.8,0.1-8.8,0.7-2.4-1.5c0.5-0.2,0.3-0.9-0.2-0.8c-1.7,0.3-3.4,0.6-5.1,1c-0.6,0.1-1.1,0.2-1.7,0.4
			c-2.2,0.1-2.2,0.4-0.2,1c2.1-0.3,4.1-0.6,6.1-1.5c0.4-0.2,0.2-0.8-0.2-0.8c-4.1-0.4-8.2,0-12.3,0.3c0.2,1,0.9,1.1,2.1,0.2
			c1.3-0.2,2.5-0.4,3.8-0.6c2.5-0.4,5-0.9,7.5-1.4c0.5-0.1,0.4-0.9-0.1-0.9c-4,0-7.9-0.1-11.8,0.8c-0.5,0.1-0.4,0.9,0.1,0.9
			c3.9-0.3,7.6-0.4,11.1-2.3c0.3-0.1,0.3-0.6,0-0.8c-4.9-2.1-10.8-1.3-15.9-0.2C259.7,70.2,259.9,71,260.4,70.9L260.4,70.9z"/>
	</g>
</g>
<g>
	<g>
		<path fill="#FFFFFF" d="M263.8,86.5c3.9-0.6,7.9-1.3,11.8-1.7c1.7-0.2,3.4-0.2,5.1-0.2c1.9,0,3.5-0.3,0.1,0.8
			c-5.4,1.7-11.9,0.5-17.5,0.2c3.1,0.2,7.1-1.3,10.4-1.5c-2.4,0.2-6.8,1-9.9,1.3c-1.1,0.1-2.6,0-3.5,0.5c1.7-0.9,3.6-1.5,5.4-2.1
			c3.8-1.1,7.8-1.6,11.7-2.1c0.5-0.1,0.6-0.9,0-0.9c0.5,0,5.1-0.3,5.6-0.4c0.6,0,0.6-0.9,0-0.9c-2.6,0.2-5,0.7-7.5,1.3
			c-0.5,0.1-0.4,0.9,0.1,0.9c0.7,0,0.4-0.8-1.2-0.6c-2,0.3-4,0.6-6,1c-3.5,0.7-6.7,1.9-9.8,3.6c-0.4,0.2-0.2,0.8,0.2,0.8
			c5.6-0.4,11.2-0.9,16.6-2.7c0.4-0.2,0.4-0.9-0.1-0.9c-4.6,0.2-9,0.9-13.3,2.4c-0.5,0.2-0.4,0.8,0.1,0.9c7,0.4,15.6,2.2,22-1.5
			c0.4-0.2,0.2-0.8-0.2-0.8c-6.9-0.9-13.7,0.5-20.5,1.5C263,85.7,263.3,86.6,263.8,86.5L263.8,86.5z"/>
	</g>
</g>
<g>
	<g>
		<path fill="#FFFFFF" d="M262.7,88.2c4.5,0.9,9,0.6,13.6,0.5c1.6-0.1,3.2-0.1,4.9-0.2c0.8-0.1,1.7-0.1,2.5-0.1
			c4.6-0.1,0.8,1.5-0.6,1.9c-2.6,0.8-5.3,1.1-8,1.4c-1.1,0.1-2.2,0.2-3.2,0.3c-2.4,0.2-1.8,0.8,0.2,0.3c1.1-0.3,2.2-0.5,3.2-0.7
			c-0.1-0.2-0.1-0.4-0.2-0.6c-1.1,0.3-2.1,0.6-3.2,0.9c-2.7,0.7-5.4,1.3-8.1,2.2c-0.5,0.2-0.4,0.8,0.1,0.9c2.3,0.1,4.3-0.3,6.5-0.7
			c7.2-1.4,0.5,0.6-1.5,1.1c-2.3,0.6-4.7,0.8-7.1,1.1c-0.9,0.1-1.8,0.2-2.7,0.4c0.2,0.2,0.5,0.3,0.7,0.5c1.6-0.6,3.3-1,5.1-1
			c0.6,0,0.6-0.9,0-0.9c-2.5,0.2-4.7,0.8-7,1.7c-0.5,0.2-0.3,0.9,0.2,0.8c5.7-1.1,12-1,17.1-4.1c0.4-0.2,0.2-0.8-0.2-0.8
			c-3.1-0.1-7.1,0.6-9.4,1.4c3.7-1.2,7.6-1.9,11.3-3.1c0.5-0.2,0.3-0.9-0.2-0.8c-2.7,0.4-5.4,1-8.1,1.8c-0.5,0.1-0.4,0.9,0.1,0.9
			c6.5-0.7,13-1.1,19.1-3.7c0.3-0.1,0.2-0.6,0-0.8c-2.3-1.6-5.2-1.2-7.9-1c-5.6,0.4-11.5,0.8-17-0.3
			C262.4,87.2,262.2,88.1,262.7,88.2L262.7,88.2z"/>
	</g>
</g>
<g>
	<g>
		<path fill="#FFFFFF" d="M264,102.8c4.1-4.5,11.1-5.5,16.8-6.5c0.4-0.1,0.8-0.1,1.1-0.2c1.4,0,1.4-0.2,0.2-0.8
			c-2.2,0.5-4.4,0.8-6.6,1.2c-3.9,0.7-7.7,1.6-11.3,3.1c-0.5,0.2-0.3,0.9,0.2,0.8c1.8-0.3,3.5-0.6,5.3-1.1c1.7-0.4,5.9-0.7,7.1-1.4
			c-3.7,2.3-8.1,3.2-11.8,5.5c-0.4,0.2-0.2,0.8,0.2,0.8c4.1,0.3,7.8-1.3,11.8-2.3c7-1.7-1.8,1.8-3.2,2.4c-2.1,0.8-4.2,1.6-6.2,2.6
			c-0.5,0.2-0.1,1,0.4,0.8c2.7-1.3,6.6-2.6,8.7-3.8c-3,1.8-6.7,2.2-9.7,4c-0.4,0.3-0.1,0.9,0.3,0.8c3.7-1,7.3-2,11.1-2.3
			c2.5-0.2,2.5,0.1,0.1,1.7c-1.1,0.7-2.3,1.2-3.6,1.6c0.6,0.8,1.2,0.8,2-0.1c0.4-0.2,0.2-0.8-0.2-0.8c-5.1,0.3-9.9,1.6-14.7,3.2
			c-0.5,0.2-0.3,1,0.2,0.8c5.6-1.6,11.3-3,17.2-3.4c1.5-0.1,8.9,0,6.4,1.9c-3,2.1-6.7,3.3-10.2,4.4c-3.4,1-6.9,1.6-10.4,2
			c-1.5,0.2-2.9,0.2-4.4,0.1c0.7,0,4.4-2.4,4.9-2.6c3-1.2,6.2-1.7,9.4-1.8c-0.2,0-3.4,2.4-4.1,2.7c-1.4,0.7-3,1.3-4.4,2
			c-0.4,0.2-0.1,1,0.3,0.8c1.1-0.5,2.1-0.9,3.3-1.2c0.5-0.2,0.3-1-0.2-0.8c-1.2-0.1-1.9,0.5-1.9,1.6c1.1-0.5,2.3-1,3.4-1.5
			c1.9-0.9,3.5-1.9,4.9-3.5c0.2-0.3,0.1-0.7-0.3-0.7c-5.5-0.3-12.4,1.4-16.4,5.3c-0.3,0.3-0.1,0.7,0.3,0.7c9,0.8,20.9-1.9,28-7.8
			c0.2-0.2,0.1-0.5-0.1-0.7c-4.2-3.1-11-1.4-15.8-0.5c-3.1,0.6-6.2,1.4-9.3,2.2c0.8,0.7,1.7,0.7,2.7,0c1.1-0.3,2.2-0.6,3.3-0.9
			c1.1-0.3,9.5-2.7,5-0.8c-0.5,0.2-0.1,0.9,0.3,0.8c3-0.9,5.8-2.1,7.8-4.6c0.2-0.3,0.1-0.7-0.3-0.7c-3.9-0.3-7.6,0.4-11.4,1.4
			c-4.2,1.1,1.4-0.3,2.7-0.8c2-0.7,3.8-1.3,5.6-2.4c0.4-0.3,0.1-0.9-0.3-0.8c-2.1,0.5-4.1,1.1-6.1,1.9c-0.5,0.2-1.1,0.4-1.6,0.7
			c-2.1,0.7-1.9,0.9,0.5,0.8c3.7-1.5,7.3-2.7,10.7-4.8c0.4-0.2,0.2-0.8-0.2-0.8c-4.2-0.1-7.9,1.4-11.9,2.4c-6.8,1.6,1.8-1.9,3.2-2.4
			c2.1-0.8,4.1-1.8,6-2.9c0.4-0.2,0.2-0.8-0.2-0.8c-2.5,0.1-4.8,0.5-7.2,1.1c-1.2,0.3-2.3,0.6-3.5,0.9c-2,0.5-2.7,1.2-0.2,0.3
			c5.3-1.8,11-2.3,16.4-3.5c0.6-0.1,0.3-0.9-0.2-0.8c-6.8,1-15.4,1.9-20.4,7.2C263,102.6,263.6,103.2,264,102.8L264,102.8z"/>
	</g>
</g>
<g>
	<g>
		<path fill="#FFFFFF" d="M262,122.4c6.4,0.2,12.8-1,19.2-1.5c-5.3,0.4-12.2,2.3-18,3.5c-0.6,0.1-0.3,0.9,0.2,0.8
			c7.9-1.5,15.7-3.5,23.4-5.8c0.5-0.1,0.4-0.9-0.1-0.9c-4.6,0.3-9,1.4-13.4,2.8c-1.1,0.3-2.1,0.7-3.2,1.1c0.6,0,1.3,0.1,1.9,0.1
			c2.1-0.8,2.1-0.7,0,0.2c-2.5,1.3-4.9,2.9-7.4,4.3c-0.4,0.2-0.1,0.9,0.3,0.8c1.9-0.6,3.6-1.3,5.3-2.2c2.6-1.2,7.6-2.7,2.2-0.2
			c-4.6,2.2-9.3,3.6-13.3,6.8c-0.3,0.3,0,0.7,0.3,0.7c2.9,0.1,5.6-0.1,8.5-0.4c1.2-0.1,2.4-0.4,3.6-0.6c0.8-0.1,3.4-1.6,1.1-0.8
			c-0.5,0.2-0.3,1,0.2,0.8c1.5-0.5,2.9-1.1,4.3-1.8c0.5-0.2,0.1-1-0.4-0.8c0.7-0.4-5.3,3.2-1.9,1.8c0.5-0.2,0.3-1-0.2-0.8
			c-2.8,0.6-5.5,1.1-8.3,1.4c-2.4,0.3-7.3,1.1-2.9-1.4c4.3-2.5,9.3-3.8,13.6-6.4c0.4-0.2,0.2-0.8-0.2-0.8c-3-0.3-5.4,0.9-8.1,2.2
			c-5.4,2.6-0.5,0.5,1-0.3c2-1.2,3.9-2.2,6-3.1c0.4-0.2,0.2-0.8-0.2-0.8c-2.5,0.2-4.6,0.7-6.9,1.7c-0.4,0.2-0.1,1,0.3,0.8
			c4.3-1.5,8.7-2.9,13.1-3.8c6.8-1.4,1.2-0.4-0.6,0.1c-2.4,0.7-4.8,1.3-7.2,1.9c-2.4,0.6-4.8,1.1-7.3,1.7c-4.5,1,0.5,0.7,2,0.4
			c4.8-1,9.5-2,14.2-3.4c0.5-0.1,0.4-0.9-0.1-0.9c-7,0.4-13.9,1.8-20.9,1.6C261.4,121.5,261.5,122.3,262,122.4L262,122.4z"/>
	</g>
</g>
<g>
	<g>
		<path fill="#FFFFFF" d="M260.4,139.6c4.7-1.1,9.5-2.2,14.2-3.2c2.4-0.5,4.7-1,7.1-1.5c0.5-0.8,0.1-0.7-1.1,0.4
			c-1.8,1-3.7,1.7-5.6,2.5c-1.9,0.7-3.9,1.3-5.9,1.7c-3.9,0.9,2.4-1.3,3.4-1.5c2.2-0.4,2.2-1.1,0.2-0.1c-5.4,2.8,2.2-1.4,3.4-2
			c0.4-0.2,0.1-1-0.3-0.8c-3.4,1.3-6.6,3-9.9,4.5c-0.5,0.2-0.1,0.9,0.3,0.8c2.9-0.9,5.8-1.5,8.9-1.6c0.6,0,0.6-0.9,0-0.9
			c-1.6,0-3.1,0.2-4.7,0.4c-1,0.2-2,0.4-3,0.7c0.2,1,0.7,1,1.7,0c0.9-0.4,1.8-0.9,2.8-1.3c1.1-0.3,1.9-0.9,2.4-1.9
			c-1.9,1-3.6,2-5.3,3.4c-0.4,0.3,0,0.8,0.4,0.7c2.2-0.4,4-1.5,6.1-2.5c0.5-0.2,0.1-0.9-0.3-0.8c-3.1,0.5-7.4,0.5-9.2,3.5
			c-0.2,0.4,0.1,0.7,0.5,0.6c6.2-1,11.9-3.1,17.3-6.3c0.4-0.3,0.1-0.9-0.3-0.8c-7.8,1.5-15.4,3.3-23.1,5
			C259.7,138.9,259.9,139.8,260.4,139.6L260.4,139.6z"/>
	</g>
</g>
<g>
	<g>
		<path fill="#FFFFFF" d="M256.6,145.5c4.8-0.3,9.5-1.1,14.3-2c2.4-0.5,4.7-0.9,7.1-1.3c1.7-0.3,3.5-0.5,5.2-0.7c-0.4,0-3,0.3-4,0.6
			c-2.5,0.7-5.1,1.3-7.6,1.9c-1.3,0.3-2.5,0.6-3.8,0.9c0,0.3,0,0.6,0,0.8c1.1-0.3,2.3-0.5,3.4-0.8c1.7-0.4,4-0.7,5.2-1.4
			c-2.3,1.2-4.4,2.8-6.6,4.2c-0.3,0.2-0.2,0.8,0.2,0.8c1.6-0.1,2.9-0.3,4.4-0.7c2.1-0.4,1.9-0.5-0.4-0.3c-1.6,0.6-3.2,0.9-4.8,1.4
			c4.5-1.4,0.1-0.4-1.3,0.2c-2,0.8-3.9,1.8-5.7,2.9c-0.4,0.2-0.2,0.8,0.2,0.8c1.9-0.1,3.6-0.4,5.5-0.8c2.7-0.9,3.1-0.9,1.3,0
			c-1.6,0.8-3.3,1.4-5,1.9c-3.3,1,2.6-0.9,3.8-1.2c3.3-1,0.8-0.7-1,0.4c-0.3,0.2-0.2,0.9,0.2,0.8c3.1-0.3,5.8-1.2,8.7-2.2
			c4-1.4,8.3-1.6,12.4-2.6c0.5-0.1,0.4-0.9-0.1-0.9c-6.4,0.8-11.8,3.8-17.4,6.9c-0.5,0.3-1,0.6-1.5,0.8c-1.6,0.2-1.9,0.7-0.9,1.5
			c0.8-0.4,7.1-4.4,3-2.3c-3.5,1.8-6.8,4-10.2,6c-0.4,0.3-0.1,0.9,0.3,0.8c2.1-0.5,4-1.4,6-2.2c0.8-0.3,6.5-2.7,3.9-0.3
			c-2.2,2.1-4.9,3.7-6.3,6.6c-0.2,0.3,0,0.6,0.4,0.7c4.1,0.4,7.9-1.6,11.6-3.2c0.4-0.2,0.2-0.8-0.2-0.8c-5.5-0.1-10.6,2-15.1,5
			c-0.4,0.3-0.2,0.9,0.3,0.8c2.4-0.7,4.7-1.5,7.1-2.1c5.6-1.4,1.8,3.1,0.6,5.3c-0.1,0.3,0,0.7,0.4,0.7c2.2-0.2,4.2-0.9,6.3-1.6
			c1.1-0.4,2.2-0.7,3.3-0.9c-1,0.9-1.9,1.6-2.8,2.6c-0.2,0.2-0.1,0.6,0.2,0.7c1.4,0.5,0.9,0.4,2.4,0.3c0.6,0,0.6-0.9,0-0.9
			c-2.8,0.1,1.3-2.6,1.8-3.1c0.3-0.2,0.1-0.8-0.3-0.7c-2.8,0.3-5.2,1.2-7.9,2c-3.6,1.2,0.1-3,0.4-5c0-0.3-0.1-0.5-0.4-0.6
			c-3-0.4-5.7,0.5-8.6,1.4c-3.3,1,0.2,0.1,1.3-0.5c2.2-1.2,4.6-1.9,7-2.4c4-0.9,3-0.8,1.5-0.1c-2.5,1.1-4.9,2-7.7,2.2
			c-1.3,0.1,2.9-3.7,3.2-4.1c1.3-1.2,2.7-2.3,3.9-3.6c0.2-0.3,0.1-0.7-0.3-0.7c-3.9,0-7.1,1.9-10.7,3.1c3.7-1.3,8.1-4.5,12.1-6.3
			c0.4-0.2,0.1-1-0.3-0.8c-2.8,1.1-5.5,2.5-8.2,4c-0.5,0.3-0.1,1,0.4,0.8c6-3.1,11.6-6.9,18.2-8.7c4.2-1.1-1.9-0.4-2.3-0.3
			c-1.8,0.3-3.6,0.6-5.3,1c-1.7,0.4-3.4,1.1-5.1,1.7c-1.2,0.4-7.1,2.4-1.1-0.1c0.5-0.2,0.3-1-0.2-0.8c-3.3,0.8-6.3,1.6-9.1,3.5
			c-0.4,0.3-0.1,0.9,0.3,0.8c3.4-0.7,6.7-1.8,9.6-3.8c0.3-0.2,0.2-0.8-0.2-0.8c-2.2,0.1-5.6,0.1-7.5,1.2c2.7-1.6,5.6-2.7,8.6-3.5
			c0.6-0.2,0.3-0.9-0.2-0.8c-2,0.3-3.3,0.7-4.8,2c-0.3,0.3,0,0.9,0.4,0.7c3.1-1.2,6.4-1.9,9.4-3.3c0.5-0.2,0.1-0.9-0.3-0.8
			c-1.5,0.3-4.3,0.5-5.5,1.3c2.2-1.4,4.3-2.9,6.6-4.1c0.5-0.2,0.1-0.9-0.3-0.8c-4.1,0.8-8.1,1.5-12.1,2.6c-0.5,0.1-0.3,1,0.2,0.8
			c6.4-1.5,12.7-3,19-4.9c0.5-0.1,0.4-0.9-0.1-0.9c-9.5,0.8-18.8,3.7-28.3,4.2C256,144.7,256,145.5,256.6,145.5L256.6,145.5z"/>
	</g>
</g>
<g>
	<g>
		<path fill="#58D3F7" d="M319.2,74.1c9.1-1.7,18.3-1.6,27.5-1.3c4.3,0.1,8.6,0.3,12.9,0.4c4.6,0.1-0.5-0.4-1.3-0.4
			c-1.7,0.1-3.3,0.4-4.9,0.9c-0.5,0.2-0.3,1,0.2,0.8c3.2-1,6.5-0.8,9.7-1.4c0.5-0.1,0.4-0.9-0.1-0.9c-14.8,0.1-29.6-1.8-44.3,0.9
			C318.4,73.4,318.7,74.3,319.2,74.1L319.2,74.1z"/>
	</g>
</g>
<g>
	<g>
		<path fill="#58D3F7" d="M319.2,85.3c10.6-2.3,21.1-5.2,31.3-9c0.5-0.2,0.3-1-0.2-0.8c-10.2,3.8-20.7,6.7-31.3,9
			C318.4,84.6,318.7,85.5,319.2,85.3L319.2,85.3z"/>
	</g>
</g>
<g>
	<g>
		<path fill="#58D3F7" d="M321.3,98c2.3-5.7,9.3-8.6,14.3-11.5c6.3-3.7,12.5-8,18.7-12c0.5-0.3,0-1.1-0.4-0.8
			c-6.9,4.4-13.7,9.1-20.7,13.2c-4.7,2.7-10.5,5.5-12.6,10.8C320.3,98.3,321.1,98.5,321.3,98L321.3,98z"/>
	</g>
</g>
<g>
	<g>
		<path fill="#20C3F3" d="M317.9,103.7c13.4-5.5,27.7-8.7,41.2-13.9c0.5-0.2,0.3-1-0.2-0.8c-13.5,5.2-27.8,8.4-41.2,13.9
			C317.1,103.1,317.4,103.9,317.9,103.7L317.9,103.7z"/>
	</g>
</g>
<g>
	<g>
		<path fill="#20C3F3" d="M315.8,112.2c15.6-12,35.8-14.6,52.4-24.6c0.5-0.3,0-1-0.4-0.8c-16.6,10-36.8,12.7-52.4,24.6
			C314.9,111.8,315.3,112.5,315.8,112.2L315.8,112.2z"/>
	</g>
</g>
<g>
	<g>
		<path fill="#20C3F3" d="M309.4,125.2c15.2-4.2,29.1-11.8,42.6-19.7c0.5-0.3,0-1-0.4-0.8c-13.5,7.9-27.3,15.5-42.4,19.7
			C308.6,124.5,308.8,125.4,309.4,125.2L309.4,125.2z"/>
	</g>
</g>
<g>
	<g>
		<path fill="#20C3F3" d="M319.2,128.8c15.8-4.1,32.1-7.1,46.7-14.8c0.5-0.3,0.1-1-0.4-0.8c-14.5,7.7-30.7,10.6-46.5,14.7
			C318.5,128.1,318.7,128.9,319.2,128.8L319.2,128.8z"/>
	</g>
</g>
<g>
	<g>
		<path fill="#20C3F3" d="M315.8,141.7c4.6-5.9,13.9-8.3,20.6-11.1c8-3.3,16.1-6.1,24-9.4c0.5-0.2,0.1-1-0.4-0.8
			c-9,3.8-18.3,7-27.3,10.8c-5.9,2.6-13.4,4.5-17.5,9.8C314.9,141.5,315.5,142.1,315.8,141.7L315.8,141.7z"/>
	</g>
</g>
<g>
	<g>
		<path fill="#20C3F3" d="M312.6,151.6c15.7-6.7,32.6-10.3,48.4-17c0.5-0.2,0.1-1-0.4-0.8c-15.8,6.7-32.6,10.3-48.4,17
			C311.7,151.1,312.1,151.8,312.6,151.6L312.6,151.6z"/>
	</g>
</g>
<g>
	<g>
		<path fill="#58D3F7" d="M325.5,157c10.4-8,24.6-9.6,36.8-13.8c0.5-0.2,0.3-1-0.2-0.8c-12.3,4.2-26.5,5.8-37,13.9
			C324.6,156.5,325,157.3,325.5,157L325.5,157z"/>
	</g>
</g>
<g>
	<g>
		<path fill="#58D3F7" d="M318.7,166.9c11-0.8,21.4-4.8,31.9-8.1c0.5-0.2,0.3-1-0.2-0.8c-10.4,3.3-20.7,7.3-31.7,8
			C318.1,166,318.1,166.9,318.7,166.9L318.7,166.9z"/>
	</g>
</g>
<g>
	<g>
		<path fill="#58D3F7" d="M318,175.8c13.2-6.1,28-7,41.2-13c0.5-0.2,0.1-1-0.4-0.8c-13.2,6-28,6.9-41.2,13
			C317,175.2,317.5,176,318,175.8L318,175.8z"/>
	</g>
</g>
<g>
	<g>
		<path fill="#58D3F7" d="M321.1,184.7c8-5.3,16.7-9.3,25.6-12.7c0.5-0.2,0.3-1-0.2-0.8c-9,3.4-17.8,7.4-25.9,12.7
			C320.2,184.3,320.7,185,321.1,184.7L321.1,184.7z"/>
	</g>
</g>
<g>
	<g>
		<path fill="#58D3F7" d="M323.8,193.2c8.5-5,17.6-9,26.1-14.1c0.5-0.3,0-1-0.4-0.8c-8.4,5.2-17.6,9.1-26.1,14.1
			C322.9,192.8,323.3,193.5,323.8,193.2L323.8,193.2z"/>
	</g>
</g>
<g>
	<g>
		<path fill="#58D3F7" d="M332.4,200.8c7.8-7.8,16.4-14.1,25-21c0.4-0.4-0.2-1-0.6-0.6c-8.6,6.9-17.2,13.2-25,21
			C331.4,200.6,332,201.2,332.4,200.8L332.4,200.8z"/>
	</g>
</g>
<g>
	<g>
		<path fill="#58D3F7" d="M346.7,207.5c2.7-3,4.3-6.7,5.8-10.4c2.3-5.8,4.9-11.5,7.2-17.3c0.2-0.5-0.6-0.7-0.8-0.2
			c-1.9,4.9-3.9,9.7-6,14.6c-2,4.5-3.4,9.1-6.7,12.8C345.8,207.3,346.4,207.9,346.7,207.5L346.7,207.5z"/>
	</g>
</g>
<g>
	<g>
		<path fill="#58D3F7" d="M363.4,211.9c2.7-6.3,2.5-13.2,3.3-19.9c0.1-0.6-0.8-0.6-0.9,0c-0.7,6.6-0.5,13.3-3.2,19.5
			C362.4,212,363.2,212.4,363.4,211.9L363.4,211.9z"/>
	</g>
</g>
<g>
	<g>
		<path fill="#58D3F7" d="M371.5,210.3c0.2-5.2,2.1-10.1,2.6-15.3c0.6-5.3,0.5-10.8,0.6-16.1c0-0.6-0.9-0.6-0.9,0
			c-0.1,5.4-0.2,10.8-0.6,16.1c-0.3,5.2-2.5,10-2.6,15.3C370.6,210.9,371.5,210.9,371.5,210.3L371.5,210.3z"/>
	</g>
</g>
<g>
	<g>
		<path fill="#58D3F7" d="M192.5,203.7c0-3.2-0.1-6.4,0-9.7c0.1-2.6,1.5-5.1,2.1-7.6c0.9-4.4,0.4-9.3,0-13.8
			c-0.5-5.4-2.8-10.4-3-15.9c-0.2-5.8,0.9-11.6,1.4-17.4c1-11.3-0.1-23.1-1.9-34.2c-0.7-4.3-0.8-8.2,1.1-12.3
			c0.6-1.3,1.2-2.7,1.3-4.2c0.5-5.9,0.2-12,0.2-18c0-0.6-0.9-0.6-0.9,0c0,5.5,0.1,11.1,0,16.6c-0.1,2.8-1.5,5.2-2.5,7.8
			c-0.8,2.1-0.6,4.6-0.4,6.7c0.3,5.8,1.5,11.7,2,17.5c0.5,6,0.7,12,0.4,18.1c-0.3,5.9-1.4,11.7-1.5,17.5c-0.1,5.1,1.3,9.6,2.5,14.5
			c1.3,5.5,1.4,12.4,0.2,18c-0.4,1.7-1.4,3.2-1.6,4.9c-0.4,3.7-0.2,7.5-0.2,11.2C191.6,204.3,192.5,204.3,192.5,203.7L192.5,203.7z"
			/>
	</g>
</g>
<g>
	<g>
		<path fill="#58D3F7" d="M192,62.5c-0.3,11.8,0.7,23.6,0.8,35.4c0.1,5.6,0.5,11.1,0.8,16.6c0.3,6.7-0.8,13.1-1.7,19.7
			c-1.5,11,0.9,21.8,1.4,32.8c0.5,11.8-1.6,23.7-1.7,35.5c0,0.6,0.9,0.6,0.9,0c0.1-11.8,2-23.7,1.7-35.5
			c-0.3-12.3-2.8-23.7-0.9-36.1c1.7-11.1,0.5-21.8,0.4-33c-0.1-11.8-1.1-23.6-0.8-35.4C192.9,61.9,192.1,61.9,192,62.5L192,62.5z"/>
	</g>
</g>
<g>
	<g>
		<path fill="#58D3F7" d="M451.8,181.1c1.3-8.4-0.5-16.8-3.2-24.7c-3.4-9.6-9.6-16.7-15-25.1c-3-4.7-6-10-7.7-15.3
			c-1.7-5.4,5.2-10,8.6-13.1c6.6-6.1,13.4-13.2,13-22.9c0-0.6-0.9-0.6-0.9,0c0.5,12.3-10.6,19.8-18.4,27.6c-5,5-3.3,9.2-0.5,15
			c4.5,9.3,11.5,16.8,16.4,25.8c5.2,9.6,8.5,21.5,6.8,32.4C450.9,181.4,451.7,181.6,451.8,181.1L451.8,181.1z"/>
	</g>
</g>
<g>
	<g>
		<path fill="#20C3F3" d="M418.3,95.9c8-9.6,17.3-34.2,0.2-39.8c-0.5-0.2-0.8,0.7-0.2,0.8c16.4,5.3,7,29.3-0.6,38.4
			C417.3,95.7,417.9,96.3,418.3,95.9L418.3,95.9z"/>
	</g>
</g>
<g>
	<g>
		<path fill="#20C3F3" d="M410.7,65.2c5.4,8.9,9.3,18.4,10.2,28.8c0,0.6,0.9,0.6,0.9,0c-0.9-10.6-4.8-20.3-10.3-29.3
			C411.2,64.3,410.4,64.7,410.7,65.2L410.7,65.2z"/>
	</g>
</g>
<g>
	<g>
		<path fill="#58D3F7" d="M440.5,195c-4,0.6-6.7,3.5-11.1,2.6c-4.8-1-8.7-5.4-10.8-9.6c-3.8-7.3-3.1-16.6-3.1-24.6
			c0-0.6-0.9-0.6-0.9,0c0,9.7-0.5,20.4,5.4,28.7c2.2,3,5.7,5.1,9.1,6.3c4.5,1.5,7.4-2,11.6-2.6C441.3,195.8,441.1,194.9,440.5,195
			L440.5,195z"/>
	</g>
</g>
<g>
	<g>
		<path fill="#FFFFFF" d="M417.3,172.6c0-3.3,0.3-6.5-0.1-9.8c-0.4-2.7-1.3-5.4-1.9-8.1c-0.1-0.5-1-0.3-0.8,0.2c0.7,3,1.6,5.9,2,9
			c0.4,2.8,0,5.8,0,8.6C416.4,173.2,417.2,173.2,417.3,172.6L417.3,172.6z"/>
	</g>
</g>
<g>
	<g>
		<path fill="#FFFFFF" d="M388.1,139.9c-1.8-7.1-0.9-14.2-0.9-21.3c0-0.6-0.9-0.6-0.9,0c-0.1,7.3-1,14.5,0.9,21.6
			C387.4,140.7,388.3,140.4,388.1,139.9L388.1,139.9z"/>
	</g>
</g>
<g>
	<g>
		<path fill="#FFFFFF" d="M387,142.6c0-7.1,0.1-14.3,0.9-21.3c0.5-4.3,1.3-9.2-0.7-13.3c-0.2-0.4-0.8-0.2-0.8,0.2
			c-0.7,7.5-0.8,15-0.9,22.5c0,6.5,0,13,1.4,19.4c0.1,0.5,0.8,0.4,0.9-0.1c0.6-8.4,0.5-16.8,0-25.3c-0.3-4.7-0.6-8.9,0.2-13.6
			c0.6-3.9,1.5-7.8,1.7-11.8c0-0.6-0.8-0.5-0.9,0c-0.1,0.9-1.8,5.7-1.6,6.5c-0.6-2.7-0.9-5.4-1.1-8.2c0-0.6-0.9-0.6-0.9,0
			c0,1.1,0,2.1,0,3.2c0,0.5,0,1.1,0,1.6c-0.5,1.3-0.3,1.9,0.9,1.7c0-1,0-2.1,0-3.1c0,1.7-0.5,3.5-0.5,5.3c0,0.4,0.6,0.6,0.8,0.2
			c1.6-3.7-0.1-7.7,1.1-11.5c0.7-2.1,1.5-4,1.8-6.2c0.8-7.2,0,0.7,0,2.5c0,0.5,0.7,0.6,0.9,0.1c1-2.7,1.5-5.6,2.2-8.4
			c1.1-3.9,4.4-7.6,6.9-10.6c0.4-0.4-0.3-1-0.6-0.6c-2.4,2.8-5.1,5.9-6.5,9.4c-0.8,2.2-1.3,4.4-1.8,6.7c-1,4.6-0.2-2.7-0.3-3.8
			c0-0.5-0.7-0.6-0.9-0.1c-0.5,2.1-0.7,4.1-1,6.2c-0.4,2.6-1.8,4.8-2.2,7.4c-0.2,1.5,0.1,3.2,0.2,4.6c0.4,5.7,0.1-1.5-0.1-2.9
			c-0.1-0.5-0.8-0.3-0.9,0.1c-0.1,2.1-0.1,4.1-0.1,6.2c0,0.6,0.9,0.6,0.9,0c0-1.1,0-2.1,0-3.2c0-0.5,0-1.1,0-1.6
			c0.5-1.4,0.3-1.9-0.8-1.6c0.2,2.8,0.7,5.6,1.4,8.4c0.1,0.3,0.6,0.5,0.8,0.1c0.6-1.3,1-2.6,1.4-4.1c0.8-3.1,0.2-4.8-0.6,0.5
			c-0.7,5.1-2.1,9.9-1.8,15.1c0.3,6,0.8,12,0.9,18c0,3-0.1,6-0.2,9c-0.6,1.1-0.5,1.7,0.3,2c-0.5-2-0.6-4.1-0.8-6.1
			c-0.5-5.7-0.3-11.5-0.2-17.3c0-3.1,0.1-6.3,0.3-9.4c0-1,0.1-9.2,0.7-3.4c0.4,4-0.4,8.1-0.7,12.1c-0.6,6.1-0.6,12.2-0.6,18.3
			C386.1,143.2,387,143.2,387,142.6L387,142.6z"/>
	</g>
</g>
<g>
	<g>
		<path fill="#FFFFFF" d="M388.1,101c-3.7-11.8,2.1-30.3,14.8-34.3c0.5-0.2,0.3-1-0.2-0.8c-13.2,4.2-19.3,23-15.4,35.3
			C387.5,101.8,388.3,101.6,388.1,101L388.1,101z"/>
	</g>
</g>
<g>
	<g>
		<path fill="#FFFFFF" d="M396.2,76.8c3.1-3.2,7.2-6.5,11.7-7.4c0.5-0.1,0.3-1-0.2-0.8c-4.6,1-8.9,4.3-12.1,7.7
			C395.2,76.6,395.8,77.2,396.2,76.8L396.2,76.8z"/>
	</g>
</g>
<g>
	<g>
		<path fill="#FFFFFF" d="M408.7,174.3c1.4-4.2,0.5-8.6-0.2-12.9c-1.1-6.5-0.7-13-0.3-19.5c0.8-14.5,0.9-28.9,1-43.4
			c0-0.5-0.8-0.6-0.9-0.1c-1.6,9.3-2.8,19-1.4,28.5c1.6,11.5,4.5,22.5,4.6,34.2c0,0.6,0.9,0.6,0.9,0c-0.1-10.5-1.9-20.5-4-30.7
			c-1.3-6.1-1.2-12.5-0.8-18.8c0.2-3.7,0.8-7.5,1.4-11.2c-1-0.1-1.2,0.5-0.6,2c0,2,0,4-0.1,6c-0.1,11.7-0.4,23.5-1,35.2
			c-0.3,5-0.6,10,0,15c0.6,5.1,2.3,10.3,0.7,15.4C407.7,174.6,408.6,174.8,408.7,174.3L408.7,174.3z"/>
	</g>
</g>
<g>
	<g>
		<path fill="#FFFFFF" d="M387.9,145c0.1,5.4,0,10.7-0.3,16c-0.3,5.4-0.8-4.1-0.9-4.6c-0.3-2.2-0.5-4.5-1-6.7
			c-0.1-0.4-0.8-0.4-0.8,0c-1.2,5.9-0.4,11.8-0.3,17.8c0,0.6,0.8,0.5,0.9,0c0.2-1.7,0.9-4.5,0.3-6.1c1,2.6,1.6,5.4,2.2,8.2
			c1.1,5,1.7,10,3,15c0.1,0.4,0.8,0.4,0.8,0c0.4-2.7,0.9-2.4,2.6-0.5c1.7,1.9,2.9,4.3,4,6.5c2.2,4.3,3.8,8.8,6.6,12.8
			c0.2,0.3,0.8,0.2,0.8-0.2c-0.2-3.1-1.6-5.3-3.4-7.8c-1-1.4-3.4-3.1-0.6-0.7c1.7,1.5,3.4,3,5.2,4.3c0.3,0.3,0.9-0.3,0.6-0.6
			c-4.6-6-8.3-13.5-14.9-17.5c-0.3-0.2-0.8,0.1-0.6,0.5c1.9,5.8,7.2,9.5,12,12.9c6.5,4.5,13.2,10.6,21,12.3c0.5,0.1,0.8-0.7,0.2-0.8
			c-6.1-1.3-10.6-5.3-15.6-8.7c-4.3-2.9-8.6-5.6-12.4-9.2c-0.6-0.6-1.2-1.2-1.7-1.8c-0.2-0.3-1.8-3.4-2.3-3.7c2.9,1.8,5.2,5,7.2,7.7
			c1.7,2.3,3.3,4.6,4.9,6.9c2.1,2.9-1.3-1.4-1.7-1.7c-1.3-1.1-2.5-2.2-3.8-3.3c-0.4-0.3-1,0.1-0.7,0.5c1.6,2.4,3.4,4.6,4.8,7.1
			c2.9,5.1,0.4,1.4-0.2,0.4c-0.9-1.5-1.6-3.1-2.4-4.7c-2.4-5-4.5-10.5-9-14.1c-0.2-0.2-0.6-0.2-0.7,0.2c-0.6,2.3-0.1,2.4-0.7-0.2
			c-0.5-2.2-0.9-4.4-1.3-6.7c-0.9-5-1.9-10-3.8-14.8c-0.2-0.4-0.8-0.4-0.9,0.1c-0.1,1.3-0.1,2.6-0.1,3.9c0,1.2,0.6,4.2,0.5,0.7
			c-0.1-2.7-0.3-5.5-0.3-8.2c0-1.1,0.1-2.2,0.2-3.2c0.3-4.1,0.5,2.5,0.6,3.5c0.3,2.8,0.8,5.5,1.6,8.2c0.1,0.5,0.8,0.4,0.9-0.1
			c0.4-6.5,0.6-13,0.5-19.6C388.7,144.4,387.8,144.4,387.9,145L387.9,145z"/>
	</g>
</g>
<rect x="406.4" y="93.3" transform="matrix(0.8276 -0.5614 0.5614 0.8276 24.3532 278.3718)" fill="#20C3F3" width="117.9" height="12.5"/>
<rect x="110.5" y="223.4" transform="matrix(-0.8276 0.5613 -0.5613 -0.8276 421.4693 364.6904)" fill="#20C3F3" width="88.5" height="47.3"/>
<g>
	<g>
		<path fill="#58D3F7" d="M243.5,74.7c2.2,0,2.2-3.3,0-3.3C241.3,71.4,241.3,74.7,243.5,74.7L243.5,74.7z"/>
	</g>
</g>
<g>
	<g>
		<path fill="#58D3F7" d="M202.3,78c2.2,0,2.2-3.3,0-3.3S200.1,78,202.3,78L202.3,78z"/>
	</g>
</g>
<g>
	<g>
		<path fill="#58D3F7" d="M229,83c2.2,0,2.2-3.3,0-3.3S226.8,83,229,83L229,83z"/>
	</g>
</g>
<g>
	<g>
		<path fill="#58D3F7" d="M202.5,101.6c2.2,0,2.2-3.3,0-3.3S200.4,101.6,202.5,101.6L202.5,101.6z"/>
	</g>
</g>
<g>
	<g>
		<path fill="#58D3F7" d="M211.2,126c2.2,0,2.2-3.3,0-3.3S209,126,211.2,126L211.2,126z"/>
	</g>
</g>
<g>
	<g>
		<path fill="#58D3F7" d="M202.9,141.7c2.2,0,2.2-3.3,0-3.3S200.8,141.7,202.9,141.7L202.9,141.7z"/>
	</g>
</g>
<g>
	<g>
		<path fill="#58D3F7" d="M195.7,198c2.2,0,2.2-3.3,0-3.3S193.5,198,195.7,198L195.7,198z"/>
	</g>
</g>
<g>
	<g>
		<path fill="#58D3F7" d="M237,130.4c2.2,0,2.2-3.3,0-3.3S234.9,130.4,237,130.4L237,130.4z"/>
	</g>
</g>
<g>
	<g>
		<path fill="#58D3F7" d="M204.6,162.4c2.2,0,2.2-3.3,0-3.3S202.4,162.4,204.6,162.4L204.6,162.4z"/>
	</g>
</g>
<g>
	<g>
		<path fill="#58D3F7" d="M220.5,189.7c2.2,0,2.2-3.3,0-3.3C218.3,186.4,218.3,189.7,220.5,189.7L220.5,189.7z"/>
	</g>
</g>
<g>
	<g>
		<path fill="#58D3F7" d="M204.8,188.1c1.6,0,1.6-2.5,0-2.5S203.2,188.1,204.8,188.1L204.8,188.1z"/>
	</g>
</g>
<g>
	<g>
		<path fill="#58D3F7" d="M225.9,126c1.6,0,1.6-2.5,0-2.5S224.3,126,225.9,126L225.9,126z"/>
	</g>
</g>
<g>
	<g>
		<path fill="#58D3F7" d="M225.9,72.5c1.6,0,1.6-2.5,0-2.5S224.3,72.5,225.9,72.5L225.9,72.5z"/>
	</g>
</g>
<g>
	<g>
		<path fill="#58D3F7" d="M203.9,173.3c1.1,0,1.1-1.7,0-1.7S202.8,173.3,203.9,173.3L203.9,173.3z"/>
	</g>
</g>
<g>
	<g>
		<path fill="#58D3F7" d="M198.1,122.9c1.1,0,1.1-1.7,0-1.7S197,122.9,198.1,122.9L198.1,122.9z"/>
	</g>
</g>
<g>
	<g>
		<path fill="#58D3F7" d="M246.4,187.4c1.1,0,1.1-1.7,0-1.7S245.3,187.4,246.4,187.4L246.4,187.4z"/>
	</g>
</g>
<g>
	<g>
		<path fill="#58D3F7" d="M228.7,135.4c1.1,0,1.1-1.7,0-1.7C227.6,133.7,227.6,135.4,228.7,135.4L228.7,135.4z"/>
	</g>
</g>
<g>
	<g>
		<path fill="#58D3F7" d="M212.5,79.1c1.1,0,1.1-1.7,0-1.7C211.4,77.5,211.4,79.1,212.5,79.1L212.5,79.1z"/>
	</g>
</g>
<g>
	<g>
		<path fill="#58D3F7" d="M239.7,80.1c1.1,0,1.1-1.7,0-1.7S238.6,80.1,239.7,80.1L239.7,80.1z"/>
	</g>
</g>
<g>
	<g>
		<path fill="#58D3F7" d="M236.3,196.2c2.2,0,2.2-3.3,0-3.3S234.1,196.2,236.3,196.2L236.3,196.2z"/>
	</g>
</g>
<g>
	<g>
		<path fill="#58D3F7" d="M234.1,188.3c0.5,0,0.5-0.8,0-0.8S233.5,188.3,234.1,188.3L234.1,188.3z"/>
	</g>
</g>
<g>
	<g>
		<path fill="#58D3F7" d="M246.1,196.5c0.5,0,0.5-0.8,0-0.8S245.6,196.5,246.1,196.5L246.1,196.5z"/>
	</g>
</g>
<g>
	<g>
		<path fill="#58D3F7" d="M200,151.1c0.5,0,0.5-0.8,0-0.8S199.5,151.1,200,151.1L200,151.1z"/>
	</g>
</g>
<g>
	<g>
		<path fill="#58D3F7" d="M211,139.4c0.5,0,0.5-0.8,0-0.8S210.4,139.4,211,139.4L211,139.4z"/>
	</g>
</g>
<g>
	<g>
		<path fill="#58D3F7" d="M205.5,112.3c0.5,0,0.5-0.8,0-0.8S205,112.3,205.5,112.3L205.5,112.3z"/>
	</g>
</g>
<g>
	<g>
		<path fill="#58D3F7" d="M202.4,89.1c0.5,0,0.5-0.8,0-0.8S201.8,89.1,202.4,89.1L202.4,89.1z"/>
	</g>
</g>
<g>
	<g>
		<path fill="#58D3F7" d="M224.2,78.6c0.5,0,0.5-0.8,0-0.8S223.6,78.6,224.2,78.6L224.2,78.6z"/>
	</g>
</g>
<g>
	<g>
		<path fill="#58D3F7" d="M247.2,83c0.5,0,0.5-0.8,0-0.8S246.7,83,247.2,83L247.2,83z"/>
	</g>
</g>
<g>
	<g>
		<path fill="#58D3F7" d="M201.1,70c0.5,0,0.5-0.8,0-0.8S200.6,70,201.1,70L201.1,70z"/>
	</g>
</g>
<rect x="260.8" y="229.1" transform="matrix(0.8275 -0.5614 0.5614 0.8275 -86.4137 189.4142)" fill="#20C3F3" width="8.6" height="12.5"/>
<rect x="251.7" y="235.7" transform="matrix(-0.8276 0.5613 -0.5613 -0.8276 602.5486 298.8333)" fill="#20C3F3" width="7.3" height="12.5"/>
<path fill="none" stroke="#FFFFFF" stroke-width="1.1204" stroke-miterlimit="10" stroke-dasharray="11.2039,5.602" d="M183.2,125.4
	"/>
<line fill="none" stroke="#FFFFFF" stroke-width="1.1204" stroke-miterlimit="10" stroke-dasharray="11.2039,5.602" x1="74.7" y1="200.1" x2="0.3" y2="250.5"/>
<line fill="none" stroke="#FFFFFF" stroke-width="1.1204" stroke-miterlimit="10" stroke-dasharray="11.2039,5.602" x1="344.6" y1="17.5" x2="289.2" y2="55"/>
<g opacity="0.7">
	<g>
		<path fill="none" stroke="#FFFFFF" stroke-miterlimit="10" d="M263.4,81.3c1.2-1.2,3-2,5.2-2.5"/>
		<path fill="none" stroke="#FFFFFF" stroke-miterlimit="10" stroke-dasharray="6.6539,3.327" d="M271.8,78.4
			c2.7-0.3,5.6-0.3,8.3-0.2"/>
		<path fill="none" stroke="#FFFFFF" stroke-miterlimit="10" d="M281.8,78.2c2.3,0.1,4.3,0.2,5.8,0.1c-1.7,0.2-3.7,0.4-5.8,0.7"/>
		<path fill="none" stroke="#FFFFFF" stroke-miterlimit="10" d="M276.4,79.9c-2,0.4-3.9,1.1-5.4,2c2.1,0.6,4.4,0.4,6.4,0.6
			c-3.1,1.7-6.8,1.6-9.8,3.3c0.8,0,2,0.8,2.7,1c-0.5,0.8-0.5,2-1.3,2.9c1.7,0.8,3.7,1.1,5.6,1.2"/>
		<path fill="none" stroke="#FFFFFF" stroke-miterlimit="10" d="M276.4,90.9c2,0,4-0.1,5.8-0.1c-2.7,0-5.3,0-8,0
			c2.4,0,4.8-0.1,7.1-0.6c-2.4,0.3-4.8,0.6-6.9,1.6c0.4,0,0.7,0.1,0.9,0.4c-3.5,1.4-7.3,1.4-11,2.2c1.8-0.6,3.6-1.2,5.5-1.7"/>
		<path fill="none" stroke="#FFFFFF" stroke-miterlimit="10" d="M271.9,92.1c1.9-0.5,3.8-0.8,5.7-0.9c-1.7,0.8-3.6,1.3-5.1,2.5
			c2.6,0.2,5.2-0.3,7.8,0c-2.1,2-5.3,2.8-7.6,4.3c2.1,0.1,4.1-0.4,6.2-0.4c-1.6,0.9-3.5,1.6-5.3,2.3"/>
		<path fill="none" stroke="#FFFFFF" stroke-miterlimit="10" d="M268.8,101.8c-1.8,0.8-3.5,1.8-4.9,3.1c1.9,0.2,3.8,0,5.8-0.3"/>
		<path fill="none" stroke="#FFFFFF" stroke-miterlimit="10" d="M274.5,103.6c1.9-0.4,3.8-0.8,5.7-1c-1.8,0.3-3.8,0.4-5.8,0.7"/>
		<path fill="none" stroke="#FFFFFF" stroke-miterlimit="10" d="M272.5,103.5c-2,0.3-3.9,0.6-5.7,1.3c1.8,0.2,3.8,0.2,5.8,0"/>
		<path fill="none" stroke="#FFFFFF" stroke-miterlimit="10" d="M276,104.3c2-0.3,3.9-0.6,5.7-0.9c-2.2,1.3-4.7,2.4-6.4,4.3
			c1.9,0.2,3.8-0.2,5.8-0.5"/>
		<path fill="none" stroke="#FFFFFF" stroke-miterlimit="10" d="M283.3,106.7c1.9-0.4,3.8-0.6,5.8-0.3c-1.7,0.9-3.5,1.5-5.4,2.1"/>
		<path fill="none" stroke="#FFFFFF" stroke-miterlimit="10" d="M274.7,110.3c-1.9,0.3-3.9,0.6-5.7,1c2-0.5,3.9-1,5.9-1.7
			c-2.6,0.1-5.3,0.6-7.9,1.1c1.9-0.2,3.8-0.5,5.7-0.9"/>
		<path fill="none" stroke="#FFFFFF" stroke-miterlimit="10" d="M276.3,109.1c1.9-0.3,3.8-0.5,5.8-0.6c-1.9,0.8-4.1,1.2-5.8,2.2
			c1-0.1,2.1,0.1,3.1,0c-2.6,1.1-5.4,2.1-8.1,2.8c0.5-0.1,1.3,0,1.9-0.1c-3,0.5-6.7,1.9-9.5,3.6c1.8,0.2,3.7-0.3,5.5-0.1
			c-0.3,0.3-0.5,0.6-0.5,1.1c1.6,0.2,3,0.7,4.7,0.3c-0.4,0.5-0.5,1.8-1.4,2.6c3.2-0.5,7.1-2.4,10.1-1.5c-2.3,2.3-5.7,2.8-8,4.9
			c1.8-0.7,3.6-1.5,5.3-2.4c-0.8,0.2-1.9,0.2-2.8,0.4c0.6-0.4,1.3-1,1.9-1.3c-1.8,0.4-3.7,1-5.5,1.7"/>
		<path fill="none" stroke="#FFFFFF" stroke-miterlimit="10" d="M266.2,125.4c-1.8,0.7-3.6,1.4-5.5,2c1.9,0.5,3.8,0.7,5.7,0.7"/>
		<path fill="none" stroke="#FFFFFF" stroke-miterlimit="10" d="M277.5,126.6c2-0.3,3.9-0.6,5.8-0.6c-1.7,0.8-3.5,1.6-5.3,2.4"/>
		<path fill="none" stroke="#FFFFFF" stroke-miterlimit="10" d="M269.9,131.8c-1.8,0.8-3.6,1.5-5.3,2.3c2.1-1.3,4.1-2.6,6.5-3.4
			c-3.5,1.3-7.3,1.6-10.8,2.9c1.8-0.5,3.7-1.2,5.5-1.8"/>
		<path fill="none" stroke="#FFFFFF" stroke-miterlimit="10" d="M272.3,129.6c1.8-0.6,3.7-1.1,5.6-1.5c-1.8-0.1-3.8,0.1-5.8,0.5"/>
		<path fill="none" stroke="#FFFFFF" stroke-miterlimit="10" d="M262.2,131.7c-1.9,0.8-3.7,1.6-5.3,2.3c1.8-0.4,3.7-1,5.6-1.3"/>
		<path fill="none" stroke="#FFFFFF" stroke-miterlimit="10" d="M263.5,132.5c1.9-0.3,3.9-0.5,5.8-0.2c-1.7,2-4.2,3.3-5.7,5.3
			c3.6,0.5,7.6-0.7,11-1.9c-0.7,2-2.3,3.7-4.3,4.7c1.9-0.4,3.7-0.9,5.6-1.5"/>
		<path fill="none" stroke="#FFFFFF" stroke-miterlimit="10" d="M280,137.9c1.9-0.5,3.8-0.9,5.7-1.2c-1.2,1.4-2.9,2.5-4.6,3.4"/>
		<path fill="none" stroke="#FFFFFF" stroke-miterlimit="10" d="M280.4,140.5c-1.8,0.9-3.7,1.6-5.3,2.3c0.6-0.5,1.4-1.3,2-1.6
			c-1.1,1.2-2.8,2.4-4.7,3.4"/>
		<path fill="none" stroke="#FFFFFF" stroke-miterlimit="10" d="M270,145.6c-2,0.8-4,1.3-5.6,1.3c1.4-0.7,3.2-1.5,5.3-2.3"/>
		<path fill="none" stroke="#FFFFFF" stroke-miterlimit="10" d="M277.6,142.2c2.2-0.5,4.2-0.6,5.8-0.3c-1.8,2.4-5.2,3.1-7.9,4.3
			c2.6-1.2,5.7-1.8,8.5-1.7c-0.5,1.6-2.3,2.7-4.4,3.6"/>
		<path fill="none" stroke="#FFFFFF" stroke-miterlimit="10" d="M279.5,148.2c-1.9,0.8-4,1.4-5.4,2c0.2-0.3,0.6-0.5,1-0.6
			c-1.8,1.9-4.4,3.1-7,3.5c1.9-0.5,3.8-0.9,5.6-1.4"/>
		<path fill="none" stroke="#FFFFFF" stroke-miterlimit="10" d="M277.9,150.6c1.9-0.5,3.7-1,5.6-1.5c-1.8,0.8-3.5,1.6-5.3,2.3"/>
		<path fill="none" stroke="#FFFFFF" stroke-miterlimit="10" d="M273.3,153.2c-1.8,0.7-3.6,1.3-5.4,2c1.6-0.7,3.5-1.4,5.5-1.9"/>
		<path fill="none" stroke="#FFFFFF" stroke-miterlimit="10" d="M274.4,153.1c2.1-0.4,4.1-0.5,5.7,0.1c-0.8,1.7-2.3,3-4.1,4"/>
		<path fill="none" stroke="#FFFFFF" stroke-miterlimit="10" d="M270.5,159.5c-2,0.6-4,1.1-5.6,1.7c1.8-0.6,3.6-1.4,5.4-2.1"/>
		<path fill="none" stroke="#FFFFFF" stroke-miterlimit="10" d="M273.7,157.8c1.8-0.6,3.7-1,5.7-1.1c-1.4,1.3-3,2.3-4.9,3.1"/>
		<path fill="none" stroke="#FFFFFF" stroke-miterlimit="10" d="M267.9,161.9c-2,0.4-3.9,0.7-5.7,0.9c1.3-1.2,3.2-1.9,5.3-2.3"/>
		<path fill="none" stroke="#FFFFFF" stroke-miterlimit="10" d="M269.4,160.2c2.1-0.2,4.1-0.2,5.8,0c-1.4,1.7-3.7,2.5-5.9,2.9
			c3.6-1.3,7.5-1.9,11-3.4c-1.5,0.6-3.5,1.2-5.5,1.9"/>
		<path fill="none" stroke="#FFFFFF" stroke-miterlimit="10" d="M272.3,162.6c-2,0.8-3.8,1.8-5,3c2.5,0.2,5.5-0.6,7.7,0.5
			c-1.3,2-3.7,2.9-6,3.4c3.2-0.3,6.5-0.9,9.6-0.6c-1.4,1.1-3.2,1.9-5.2,2.6"/>
		<path fill="none" stroke="#FFFFFF" stroke-miterlimit="10" d="M271.7,171.9c-2,0.5-4,0.9-5.7,1.3
			C267.8,172.5,269.7,172.1,271.7,171.9"/>
		<path fill="none" stroke="#FFFFFF" stroke-miterlimit="10" d="M277.1,171.3c2-0.1,4,0,5.8,0.1c-0.6,1.6-2.3,2.8-4.3,3.6"/>
		<path fill="none" stroke="#FFFFFF" stroke-miterlimit="10" d="M272.2,176.6c-2.2,0.4-4.2,0.6-5.7,0.9c3.1-0.4,6.4-1,9.5-0.7
			c-1.6,1-3.5,1.6-5.4,2.1"/>
		<path fill="none" stroke="#FFFFFF" stroke-miterlimit="10" d="M268.4,179.3c-1.9,0.3-3.9,0.6-5.7,1c1.9-0.4,3.8-0.9,5.6-1.4"/>
		<path fill="none" stroke="#FFFFFF" stroke-miterlimit="10" d="M269,178.7c1.9-0.4,3.8-0.9,5.7-1.3c-1,1.3-2.6,2.4-4.1,3.3
			c1.6-0.4,3.6-0.9,5.6-1.4"/>
		<path fill="none" stroke="#FFFFFF" stroke-miterlimit="10" d="M280.3,178.6c2.1-0.2,4.1-0.1,5.7,0.6c-0.9,1.5-2.4,2.8-4.2,3.9"/>
		<path fill="none" stroke="#FFFFFF" stroke-miterlimit="10" d="M276.8,185.6c-1.9,0.8-3.9,1.4-5.5,1.9c2.6-2,6-3.7,8.9-4.8
			c-1.4,1.3-2.9,2.5-4.5,3.7"/>
		<path fill="none" stroke="#FFFFFF" stroke-miterlimit="10" d="M275.7,186.4c-1.6,1.2-3.2,2.3-4.8,3.3c1.7-0.7,3.5-1.5,5.4-2"/>
		<path fill="none" stroke="#FFFFFF" stroke-miterlimit="10" d="M278,187.2c1.9-0.5,3.9-0.7,5.8-0.5c-1.4,1.2-3,2.3-4.7,3.3"/>
		<path fill="none" stroke="#FFFFFF" stroke-miterlimit="10" stroke-dasharray="9.5166,4.7583" d="M274.8,192.2
			c-3.6,1.6-7.5,2.8-11.2,4"/>
		<path fill="none" stroke="#FFFFFF" stroke-miterlimit="10" d="M261.3,196.8c-1.9,0.6-3.8,1.2-5.5,1.8c1.4-0.8,3.2-1.8,5.1-2.8"/>
		<path fill="none" stroke="#FFFFFF" stroke-miterlimit="10" stroke-dasharray="6.48,3.24" d="M263.8,194.4c2.4-1.2,5-2.3,7.5-3.1"
			/>
		<path fill="none" stroke="#FFFFFF" stroke-miterlimit="10" d="M272.8,190.9c2.1-0.5,4.1-0.7,5.7-0.3c-0.2,2.2-1.4,4-3,5.6
			c0.8-1.6,1.9-3.3,3.3-4.8"/>
		<path fill="none" stroke="#FFFFFF" stroke-miterlimit="10" d="M280.6,189.6c1.5-1.4,3.1-2.5,4.7-3.4c-0.9,1.7-2.1,3.2-3.5,4.6"/>
		<path fill="none" stroke="#FFFFFF" stroke-miterlimit="10" d="M277.8,194.5c-1.5,1.3-2.9,2.6-4.1,4.1c2.2-2.7,4.3-5.3,7.4-7.1
			c0.3,1.9-0.3,3.8-1,5.7c1.4-2.6,2.7-5.7,4.9-7.6c0.9,1.6,1.1,3.7,1.1,5.4c2.1-2.9,4.1-6.5,7.2-8.1c0.9,1.7,1.1,3.6,1.1,5.6"/>
		<path fill="none" stroke="#FFFFFF" stroke-miterlimit="10" d="M294.4,192.6c0,2-0.2,4,0,5.8c1-1.6,1.8-3.4,2.6-5.2"/>
		<path fill="none" stroke="#FFFFFF" stroke-miterlimit="10" d="M297.5,192.1c0.9-1.8,1.8-3.5,3-5c1.9,2.4,0.3,5.8,1.6,8.4
			c1.6-1.2,2.7-2.8,3.7-4.4"/>
		<path fill="none" stroke="#FFFFFF" stroke-miterlimit="10" d="M306.4,190.1c1-1.7,2.1-3.3,3.5-4.6c1.7,3.3,0.4,8.3,2.9,11.1
			c2.1-1.4,2.8-3.8,4.4-5.7"/>
	</g>
</g>
</svg>
