<?xml version="1.0" encoding="utf-8"?>
<!-- Generator: Adobe Illustrator 17.1.0, SVG Export Plug-In . SVG Version: 6.00 Build 0)  -->
<!DOCTYPE svg PUBLIC "-//W3C//DTD SVG 1.1//EN" "http://www.w3.org/Graphics/SVG/1.1/DTD/svg11.dtd">
<svg version="1.1" id="Layer_1" xmlns="http://www.w3.org/2000/svg" xmlns:xlink="http://www.w3.org/1999/xlink" x="0px" y="0px"
	 viewBox="0 0 160 110" enable-background="new 0 0 160 110" xml:space="preserve">
<path fill="#C2C2C2" d="M40.8,24.3c-0.4,0.2-0.8,0.3-1.1,0.4c-0.4,0.1-0.8,0.2-1.2,0.3c0.4-0.3,0.8-0.6,1.1-1
	c0.3-0.4,0.5-0.8,0.7-1.3c-0.4,0.2-0.8,0.4-1.3,0.6c-0.4,0.2-0.9,0.3-1.4,0.4c-0.3-0.4-0.8-0.7-1.3-1c-0.5-0.2-1-0.3-1.6-0.3
	c-1.1,0-2,0.4-2.8,1.2c-0.8,0.8-1.2,1.8-1.2,2.9c0,0.2,0,0.5,0.1,0.9c-1.7-0.1-3.3-0.5-4.7-1.3c-1.4-0.8-2.6-1.8-3.7-3
	c-0.3,0.6-0.5,1.3-0.5,2c0,1.5,0.6,2.6,1.8,3.4c-0.7,0-1.3-0.2-1.8-0.5v0.1c0,1,0.3,1.8,0.9,2.6c0.6,0.7,1.4,1.2,2.3,1.4
	c-0.2,0-0.3,0.1-0.5,0.1c-0.2,0-0.4,0-0.6,0c-0.2,0-0.4,0-0.7-0.1c0.2,0.8,0.7,1.5,1.4,2c0.7,0.5,1.5,0.8,2.4,0.9
	c-1.4,1.1-3.1,1.7-5,1.7h-1c0.9,0.6,1.8,1,2.9,1.3c1.1,0.3,2.2,0.5,3.3,0.5c1.9,0,3.5-0.3,4.9-1.1c1.4-0.7,2.6-1.6,3.6-2.7
	c1-1.1,1.7-2.3,2.2-3.7c0.5-1.4,0.7-2.7,0.7-4.1v-0.5c0.4-0.3,0.8-0.6,1.1-1C40.3,25,40.6,24.7,40.8,24.3z"/>
<path fill="#C2C2C2" d="M74.3,18.6c-0.6,0-1.1,0.2-1.5,0.7c-0.4,0.4-0.6,1-0.6,1.6c0,0.6,0.2,1.1,0.6,1.5c0.4,0.4,0.9,0.6,1.5,0.6
	c0.6,0,1.1-0.2,1.5-0.6c0.4-0.4,0.6-0.9,0.6-1.5c0-0.6-0.2-1.1-0.6-1.6C75.5,18.9,74.9,18.6,74.3,18.6z M76.1,24.3h-3.5v12.2h3.5
	V24.3z M77.8,36.6h3.5v-7.9c0.3-0.3,0.6-0.5,0.9-0.6c0.3-0.1,0.6-0.2,0.9-0.2c0.3,0,0.7,0,1,0.2c0.2,0.1,0.3,0.2,0.4,0.4
	s0.2,0.4,0.2,0.6v7.5h3.5v-7.5c0-0.8-0.2-1.6-0.7-2.3c-0.4-0.8-1-1.3-1.7-1.8c-0.6-0.3-1.4-0.5-2.2-0.6c-0.9,0-1.6,0.1-2.3,0.5v-0.6
	h-3.5V36.6z"/>
<path fill="#C2C2C2" d="M118.9,37h6.3c0.7,0,1.3-0.1,2-0.2c0.3-0.1,0.6-0.2,0.9-0.3c0.3-0.1,0.5-0.3,0.7-0.5c0.4-0.3,0.8-0.7,1-1.1
	c0.4-0.7,0.6-1.5,0.6-2.2c0-0.7-0.2-1.4-0.6-2c-0.3-0.5-0.8-0.9-1.6-1.3c0.5-0.2,0.8-0.5,1-0.8c0.5-0.5,0.7-1.2,0.7-2
	c0-0.8-0.2-1.5-0.6-2.1c-0.8-1-2-1.5-3.6-1.5h-6.7V37z M126.5,28.2c-0.4,0.2-0.9,0.3-1.5,0.3h-3v-3.1h2.6c0.3,0,0.6,0,0.9,0.1
	s0.5,0.1,0.7,0.2c0.5,0.2,0.7,0.7,0.7,1.3C127.1,27.5,126.9,27.9,126.5,28.2z M127.4,32.5c0,0.9-0.3,1.5-0.9,1.8
	c-0.3,0.2-0.8,0.2-1.4,0.2h-3v-3.7h3c0.6,0,1.1,0.1,1.4,0.2C127.1,31.3,127.4,31.8,127.4,32.5z M132.8,27.6c-0.9,1-1.4,2.3-1.4,4
	c0,1.9,0.5,3.2,1.5,4c1,0.8,2.2,1.2,3.5,1.2c1.7,0,2.9-0.5,3.8-1.4c0.6-0.6,0.9-1.3,1-1.8h-2.7c-0.1,0.3-0.3,0.5-0.5,0.7
	c-0.4,0.3-0.9,0.5-1.5,0.5s-1-0.1-1.4-0.4c-0.7-0.4-1-1.1-1-2.1h7.3c0-0.4,0-0.8,0-1.1c0-0.3-0.1-0.6-0.1-0.8
	c-0.1-0.7-0.4-1.4-0.8-2.1c-0.4-0.6-1-1.1-1.7-1.5c-0.7-0.3-1.5-0.5-2.3-0.5C134.9,26.3,133.7,26.7,132.8,27.6z M133.5,25h5.6v-1.4
	h-5.6V25z M137.9,28.9c0.4,0.4,0.6,0.9,0.7,1.6h-4.5c0.1-0.6,0.3-1.1,0.7-1.5c0.4-0.4,0.9-0.6,1.6-0.6
	C136.9,28.4,137.4,28.6,137.9,28.9z"/>
<path fill="#20C3F4" d="M30,60.1c2.8,0,5.4,0.5,7.8,1.6c2.4,1,4.5,2.5,6.3,4.3c1.8,1.8,3.2,3.9,4.3,6.3c1,2.4,1.6,5,1.6,7.8
	s-0.5,5.4-1.6,7.8c-1,2.4-2.5,4.5-4.3,6.3c-1.8,1.8-3.9,3.2-6.3,4.3c-2.4,1-5,1.6-7.8,1.6s-5.4-0.5-7.8-1.6c-2.4-1-4.6-2.5-6.4-4.3
	c-1.8-1.8-3.3-3.9-4.3-6.3c-1-2.4-1.6-5-1.6-7.8s0.5-5.4,1.6-7.8c1-2.4,2.5-4.5,4.3-6.3c1.8-1.8,3.9-3.2,6.4-4.3
	C24.7,60.6,27.3,60.1,30,60.1z M40.8,74.3c-0.4,0.2-0.8,0.3-1.1,0.4c-0.4,0.1-0.8,0.2-1.2,0.3c0.4-0.3,0.8-0.6,1.1-1
	c0.3-0.4,0.5-0.8,0.7-1.3c-0.4,0.2-0.8,0.4-1.3,0.6c-0.4,0.2-0.9,0.3-1.4,0.4c-0.3-0.4-0.8-0.7-1.3-1c-0.5-0.2-1-0.3-1.6-0.3
	c-1.1,0-2,0.4-2.8,1.2c-0.8,0.8-1.2,1.8-1.2,2.9c0,0.2,0,0.5,0.1,0.9c-1.7-0.1-3.3-0.5-4.7-1.3c-1.4-0.8-2.6-1.8-3.7-3
	c-0.3,0.6-0.5,1.3-0.5,2c0,1.5,0.6,2.6,1.8,3.4c-0.7,0-1.3-0.2-1.8-0.5v0.1c0,1,0.3,1.8,0.9,2.6c0.6,0.7,1.4,1.2,2.3,1.4
	c-0.2,0-0.3,0.1-0.5,0.1c-0.2,0-0.4,0-0.6,0c-0.2,0-0.4,0-0.7-0.1c0.2,0.8,0.7,1.5,1.4,2c0.7,0.5,1.5,0.8,2.4,0.9
	c-1.4,1.1-3.1,1.7-5,1.7h-1c0.9,0.6,1.8,1,2.9,1.3c1.1,0.3,2.2,0.5,3.3,0.5c1.9,0,3.5-0.3,4.9-1.1c1.4-0.7,2.6-1.6,3.6-2.7
	c1-1.1,1.7-2.3,2.2-3.7c0.5-1.4,0.7-2.7,0.7-4.1v-0.5c0.4-0.3,0.8-0.6,1.1-1C40.3,75,40.6,74.7,40.8,74.3z"/>
<path fill="#20C3F4" d="M80,100c-2.8,0-5.4-0.5-7.8-1.6c-2.4-1-4.5-2.5-6.3-4.3c-1.8-1.8-3.2-3.9-4.3-6.4c-1-2.4-1.6-5-1.6-7.8
	s0.5-5.4,1.6-7.8c1-2.4,2.5-4.5,4.3-6.3s3.9-3.2,6.3-4.3c2.4-1,5-1.6,7.8-1.6s5.4,0.5,7.8,1.6c2.4,1,4.6,2.5,6.4,4.3
	c1.8,1.8,3.3,3.9,4.3,6.3c1,2.4,1.6,5,1.6,7.8s-0.5,5.4-1.6,7.8c-1,2.4-2.5,4.6-4.3,6.4c-1.8,1.8-3.9,3.3-6.4,4.3
	C85.3,99.5,82.7,100,80,100z M74.3,68.6c-0.6,0-1.1,0.2-1.5,0.7c-0.4,0.4-0.6,1-0.6,1.6s0.2,1.1,0.6,1.5c0.4,0.4,0.9,0.6,1.5,0.6
	c0.6,0,1.1-0.2,1.5-0.6c0.4-0.4,0.6-0.9,0.6-1.5s-0.2-1.1-0.6-1.6C75.5,68.9,74.9,68.6,74.3,68.6z M76.1,74.3h-3.5v12.2h3.5V74.3z
	 M77.8,86.6h3.5v-7.9c0.3-0.3,0.6-0.5,0.9-0.6c0.3-0.1,0.6-0.2,0.9-0.2c0.3,0,0.7,0,1,0.2c0.2,0.1,0.3,0.2,0.4,0.4s0.2,0.4,0.2,0.6
	v7.5h3.5v-7.5c0-0.8-0.2-1.6-0.7-2.3c-0.4-0.8-1-1.3-1.7-1.8c-0.6-0.3-1.4-0.5-2.2-0.6c-0.9,0-1.6,0.1-2.3,0.5v-0.6h-3.5V86.6z"/>
<path fill="#20C3F4" d="M130.3,60c2.7,0,5.3,0.6,7.7,1.7c2.4,1.1,4.5,2.5,6.3,4.3c1.8,1.8,3.2,3.9,4.2,6.3c1,2.4,1.5,5,1.5,7.7
	c0,2.8-0.5,5.4-1.6,7.8c-1,2.4-2.5,4.6-4.3,6.4c-1.8,1.8-3.9,3.3-6.3,4.3c-2.4,1-5,1.6-7.8,1.6c-2.8,0-5.4-0.5-7.8-1.6
	c-2.4-1-4.6-2.5-6.4-4.3c-1.8-1.8-3.3-3.9-4.3-6.4c-1-2.4-1.6-5-1.6-7.8c0-2.7,0.5-5.3,1.6-7.7c1-2.4,2.5-4.5,4.2-6.3
	c1.8-1.8,3.9-3.2,6.3-4.3c2.4-1.1,5-1.6,7.7-1.7H130.3z M118.9,87h6.3c0.7,0,1.3-0.1,2-0.2c0.3-0.1,0.6-0.2,0.9-0.3
	c0.3-0.1,0.5-0.3,0.7-0.5c0.4-0.3,0.8-0.7,1-1.1c0.4-0.7,0.6-1.5,0.6-2.2c0-0.7-0.2-1.4-0.6-2c-0.3-0.5-0.8-0.9-1.6-1.3
	c0.5-0.2,0.8-0.5,1-0.8c0.5-0.5,0.7-1.2,0.7-2c0-0.8-0.2-1.5-0.6-2.1c-0.8-1-2-1.5-3.6-1.5h-6.7V87z M126.5,78.2
	c-0.4,0.2-0.9,0.3-1.5,0.3h-3v-3.1h2.6c0.3,0,0.6,0,0.9,0.1s0.5,0.1,0.7,0.2c0.5,0.2,0.7,0.7,0.7,1.3
	C127.1,77.5,126.9,77.9,126.5,78.2z M127.4,82.5c0,0.9-0.3,1.5-0.9,1.8c-0.3,0.2-0.8,0.2-1.4,0.2h-3v-3.7h3c0.6,0,1.1,0.1,1.4,0.2
	C127.1,81.3,127.4,81.8,127.4,82.5z M132.8,77.6c-0.9,1-1.4,2.3-1.4,4c0,1.9,0.5,3.2,1.5,4c1,0.8,2.2,1.2,3.5,1.2
	c1.7,0,2.9-0.5,3.8-1.4c0.6-0.6,0.9-1.3,1-1.8h-2.7c-0.1,0.3-0.3,0.5-0.5,0.7c-0.4,0.3-0.9,0.5-1.5,0.5s-1-0.1-1.4-0.4
	c-0.7-0.4-1-1.1-1-2.1h7.3c0-0.4,0-0.8,0-1.1c0-0.3-0.1-0.6-0.1-0.8c-0.1-0.7-0.4-1.4-0.8-2.1c-0.4-0.6-1-1.1-1.7-1.5
	c-0.7-0.3-1.5-0.5-2.3-0.5C134.9,76.3,133.7,76.7,132.8,77.6z M133.5,75h5.6v-1.4h-5.6V75z M137.9,78.9c0.4,0.4,0.6,0.9,0.7,1.6
	h-4.5c0.1-0.6,0.3-1.1,0.7-1.5c0.4-0.4,0.9-0.6,1.6-0.6C136.9,78.4,137.4,78.6,137.9,78.9z"/>
</svg>
